<?xml version="1.0" encoding="UTF-8" standalone="no"?>
<svg
   version="1.1"
   viewBox="260 333 560.67 419.29"
   xml:space="preserve"
   id="svg48"
   sodipodi:docname="eventlogo-spring-2026.svg"
   inkscape:version="1.4.3 (0d15f75, 2025-12-25)"
   xmlns:inkscape="http://www.inkscape.org/namespaces/inkscape"
   xmlns:sodipodi="http://sodipodi.sourceforge.net/DTD/sodipodi-0.dtd"
   xmlns="http://www.w3.org/2000/svg"
   xmlns:svg="http://www.w3.org/2000/svg"><sodipodi:namedview
   id="namedview48"
   pagecolor="#ffffff"
   bordercolor="#000000"
   borderopacity="0.25"
   inkscape:showpageshadow="2"
   inkscape:pageopacity="0.0"
   inkscape:pagecheckerboard="0"
   inkscape:deskcolor="#d1d1d1"
   inkscape:zoom="3.8875241"
   inkscape:cx="391.63745"
   inkscape:cy="254.27495"
   inkscape:window-width="1920"
   inkscape:window-height="1017"
   inkscape:window-x="-8"
   inkscape:window-y="-8"
   inkscape:window-maximized="1"
   inkscape:current-layer="svg48" />
<desc
   id="desc1">Created with Fabric.js 5.2.4</desc>
<defs
   id="defs1">
</defs>
<g
   transform="matrix(1 0 0 1 540 540)"
   id="75b073ed-5a01-4898-a6e1-0ec99d3ac0e8">
<rect
   style="stroke: none; stroke-width: 1; stroke-dasharray: none; stroke-linecap: butt; stroke-dashoffset: 0; stroke-linejoin: miter; stroke-miterlimit: 4; fill: rgb(255,255,255); fill-rule: nonzero; opacity: 1; visibility: hidden;"
   vector-effect="non-scaling-stroke"
   x="-540"
   y="-540"
   rx="0"
   ry="0"
   width="1080"
   height="1080"
   id="rect1" />
</g>
<g
   transform="matrix(1 0 0 1 540 540)"
   id="416a7248-d211-4721-8a55-e9b2ebf609fc">
</g>
<g
   transform="matrix(1 0 0 1 550.12 541.65)"
   id="g1">
<path
   style="stroke: none; stroke-width: 1; stroke-dasharray: none; stroke-linecap: butt; stroke-dashoffset: 0; stroke-linejoin: miter; stroke-miterlimit: 4; fill: rgb(17,17,17); fill-rule: nonzero; opacity: 1;"
   vector-effect="non-scaling-stroke"
   transform=" translate(-290.46, -211.3)"
   d="M 271.23 298.29 C 215.40000000000003 285.49 159.63000000000002 269.26 108.84000000000003 242.04000000000002 C 82.35000000000004 227.02 53.39000000000003 207.65000000000003 41.83000000000003 177.34000000000003 C 29.33 142.98 53.09 116.5 85.78 109 C 103.66 104.58 122.32 104.23 140.19 105.09 C 174.85 106.98 208.75 113.56 242.57999999999998 120.51 C 309.36 135.11 376.02 150.38 440.84 172.3 C 472.54999999999995 183.81 511.67999999999995 199.10000000000002 532.48 227.04000000000002 C 546.8000000000001 246.84000000000003 546.12 271.48 527.95 288.8 C 513.9300000000001 302.52000000000004 494.5400000000001 308.98 476.58000000000004 312.85 C 442.13000000000005 319.84000000000003 407.03000000000003 318.5 372.39000000000004 315.1 C 338.33 311.68 304.54 305.93 271.23 298.29 z M 272.58 292.51 C 337.27 308.03 407.51 312.4 471.41999999999996 293.26 C 485.31999999999994 288.69 500.11999999999995 282.37 509.77 271.49 C 512.52 268.29 514.31 264.91 515.36 261.58 C 516.66 258.27 517.27 254.92999999999998 516.82 251.38 C 514.6700000000001 237.82 502.91 226.91 492.45000000000005 218.20999999999998 C 457.35 191.07999999999998 414.98 173.76999999999998 373.07000000000005 159.68999999999997 C 298.28000000000003 136.28999999999996 219.11000000000004 120.84999999999997 140.53000000000006 126.54999999999997 C 120.56000000000006 128.52999999999997 86.05000000000007 132.69999999999996 74.50000000000006 149.76999999999998 C 72.93000000000006 152.32 72.34000000000006 154.96999999999997 72.13000000000005 157.92999999999998 C 71.62000000000005 160.76999999999998 71.55000000000005 164.05999999999997 72.42000000000006 167.78999999999996 C 75.80000000000005 181.23999999999995 85.86000000000006 193.21999999999997 95.72000000000006 203.19999999999996 C 143.56 249.06 208.41 277.11 272.58 292.51 z"
   stroke-linecap="round"
   id="path1" />
</g>
<g
   transform="matrix(1 0 0 1 552.97 539.16)"
   id="g2">
<path
   style="stroke: none; stroke-width: 1; stroke-dasharray: none; stroke-linecap: butt; stroke-dashoffset: 0; stroke-linejoin: miter; stroke-miterlimit: 4; fill: rgb(17,17,17); fill-rule: nonzero; opacity: 1;"
   vector-effect="non-scaling-stroke"
   transform=" translate(-293.31, -208.8)"
   d="M 246.15 287.92 C 197.39000000000001 257.88 149.77 224.60000000000002 110.41 182.52 C 90.14 159.79000000000002 68.94 132.15 67.72 99.73 C 66.76 68.13 91.35 49.02 121.38 48.78 C 171.73 48.57 232.98 85.59 276.09000000000003 110.35 C 334.64000000000004 145.60999999999999 392.88000000000005 181.48 447.22 223.05 C 473.59000000000003 244.16000000000003 505.67 271.13 516.44 304.31 C 523.6500000000001 327.66 515.09 350.78 492.32000000000005 361.35 C 474.64000000000004 369.84000000000003 454.20000000000005 369.73 435.95000000000005 367.63 C 401.07000000000005 363.19 368.27000000000004 350.65 336.56000000000006 336.31 C 305.4 322.14 275.25 305.85 246.15 287.92 z M 249.28 282.87 C 305.56 318.34000000000003 370.68 345.03 437.35 347.42 C 451.98 347.55 468.03000000000003 346.32 480.66 339.12 C 484.3 336.97 487.07000000000005 334.35 489.13000000000005 331.53000000000003 C 491.4200000000001 328.81 493.07000000000005 325.84000000000003 493.7900000000001 322.34000000000003 C 496.11000000000007 308.81000000000006 488.4700000000001 294.70000000000005 481.36000000000007 283.1 C 456.83000000000004 246.14000000000001 422.26000000000005 216.14000000000004 387.08000000000004 189.35000000000002 C 323.77 143.17 253.74 103.13 177.5 83.3 C 157.95 78.77 123.93 71.63 107.51 84.09 C 105.21000000000001 86 103.80000000000001 88.32000000000001 102.65 91.06 C 101.25 93.58 100.13000000000001 96.68 99.75 100.49000000000001 C 98.64 114.31 104.31 128.89000000000001 110.44 141.51000000000002 C 141.05 200.3 193.46 247.69 249.28 282.87 z"
   stroke-linecap="round"
   id="path2" />
</g>
<g
   transform="matrix(1 0 0 1 554.76 540)"
   id="g3">
<path
   style="stroke: none; stroke-width: 1; stroke-dasharray: none; stroke-linecap: butt; stroke-dashoffset: 0; stroke-linejoin: miter; stroke-miterlimit: 4; fill: rgb(17,17,17); fill-rule: nonzero; opacity: 1;"
   vector-effect="non-scaling-stroke"
   transform=" translate(-295.1, -209.64)"
   d="M 225.65 269.94 C 189.18 225.78 154.83 178.93 131.14 126.41 C 119.27999999999999 98.36 108.11999999999999 65.36 117.41999999999999 34.28 C 128.45 -0.5899999999999963 163.42999999999998 -7.109999999999999 193.90999999999997 6.850000000000001 C 210.77999999999997 14.240000000000002 225.78999999999996 25.330000000000002 239.42999999999998 36.900000000000006 C 265.76 59.510000000000005 288.64 85.38 311.22999999999996 111.5 C 355.28999999999996 163.76 398.84999999999997 216.48000000000002 436.89 273.35 C 455.03999999999996 301.83000000000004 476.71999999999997 337.71000000000004 476.21999999999997 372.59000000000003 C 475.51 397.02000000000004 459.96 416.14000000000004 435 418.81000000000006 C 415.53 421.15000000000003 396.21 414.45000000000005 379.61 406.59000000000003 C 348.03000000000003 391.14000000000004 321.02 368.70000000000005 295.62 344.90000000000003 C 270.71 321.44 247.42 296.3 225.65 269.94 z M 230.24 266.18 C 272.08000000000004 317.9 325.12 364.16 387.46000000000004 387.92 C 401.26000000000005 392.76 416.85 396.77000000000004 431.14000000000004 394.02000000000004 C 435.27000000000004 393.16 438.75000000000006 391.57000000000005 441.61000000000007 389.56000000000006 C 444.6600000000001 387.7200000000001 447.1700000000001 385.45000000000005 448.99000000000007 382.36000000000007 C 455.55000000000007 370.30000000000007 452.87000000000006 354.4800000000001 449.87000000000006 341.20000000000005 C 438.56000000000006 298.30000000000007 415.51000000000005 258.76000000000005 390.8500000000001 222.07000000000005 C 345.80000000000007 157.95000000000005 292.4200000000001 97.47000000000006 226.64000000000007 54.12000000000006 C 209.55000000000007 43.51000000000006 179.75000000000006 25.810000000000063 160.14000000000007 32.30000000000006 C 157.34000000000006 33.37000000000006 155.26000000000008 35.11000000000006 153.29000000000008 37.33000000000006 C 151.16000000000008 39.27000000000006 149.10000000000008 41.84000000000006 147.51000000000008 45.320000000000064 C 142.00000000000009 58.04000000000006 142.67000000000007 73.68000000000006 144.41000000000008 87.59000000000006 C 154.41 153.12 188.74 214.87 230.24 266.18 z"
   stroke-linecap="round"
   id="path3" />
</g>
<g
   transform="matrix(1 0 0 1 550.97 555.3)"
   id="g4">
<path
   style="stroke: none; stroke-width: 1; stroke-dasharray: none; stroke-linecap: butt; stroke-dashoffset: 0; stroke-linejoin: miter; stroke-miterlimit: 4; fill: rgb(17,17,17); fill-rule: nonzero; opacity: 1;"
   vector-effect="non-scaling-stroke"
   transform=" translate(-291.31, -224.94)"
   d="M 547.74 169.58 C 547.71 169.56 547.69 169.53 547.66 169.51000000000002 C 547.52 169.37000000000003 547.38 169.22000000000003 547.24 169.08 C 547.21 169.06 547.19 169.03 547.16 169.01000000000002 C 547.02 168.87000000000003 546.88 168.72000000000003 546.74 168.58 C 546.71 168.56 546.69 168.53 546.66 168.51000000000002 C 546.52 168.37000000000003 546.38 168.22000000000003 546.24 168.08 C 546.21 168.06 546.19 168.03 546.16 168.01000000000002 C 546.02 167.87000000000003 545.88 167.72000000000003 545.74 167.58 C 545.71 167.56 545.69 167.53 545.66 167.51000000000002 C 545.52 167.37000000000003 545.38 167.22000000000003 545.24 167.08 C 545.21 167.06 545.19 167.03 545.16 167.01000000000002 C 545.02 166.87000000000003 544.88 166.72000000000003 544.74 166.58 C 544.71 166.56 544.69 166.53 544.66 166.51000000000002 C 544.52 166.37000000000003 544.38 166.22000000000003 544.24 166.08 C 544.21 166.06 544.19 166.03 544.16 166.01000000000002 C 544.02 165.87000000000003 543.88 165.72000000000003 543.74 165.58 C 543.71 165.56 543.69 165.53 543.66 165.51000000000002 C 543.52 165.37000000000003 543.38 165.22000000000003 543.24 165.08 C 543.21 165.06 543.19 165.03 543.16 165.01000000000002 C 543.02 164.87000000000003 542.88 164.72000000000003 542.74 164.58 C 542.71 164.56 542.69 164.53 542.66 164.51000000000002 C 542.52 164.37000000000003 542.38 164.22000000000003 542.24 164.08 C 542.21 164.06 542.19 164.03 542.16 164.01000000000002 C 542.02 163.87000000000003 541.88 163.72000000000003 541.74 163.58 C 541.71 163.56 541.69 163.53 541.66 163.51000000000002 C 541.52 163.37000000000003 541.38 163.22000000000003 541.24 163.08 C 541.21 163.06 541.19 163.03 541.16 163.01000000000002 C 541.02 162.87000000000003 540.88 162.72000000000003 540.74 162.58 C 540.71 162.56 540.69 162.53 540.66 162.51000000000002 C 540.52 162.37000000000003 540.38 162.22000000000003 540.24 162.08 C 540.21 162.06 540.19 162.03 540.16 162.01000000000002 C 540.02 161.87000000000003 539.88 161.72000000000003 539.74 161.58 C 539.71 161.56 539.69 161.53 539.66 161.51000000000002 C 539.52 161.37000000000003 539.38 161.22000000000003 539.24 161.08 C 539.21 161.06 539.19 161.03 539.16 161.01000000000002 C 539.02 160.87000000000003 538.88 160.72000000000003 538.74 160.58 C 538.71 160.56 538.69 160.53 538.66 160.51000000000002 C 538.52 160.37000000000003 538.38 160.22000000000003 538.24 160.08 C 538.21 160.06 538.19 160.03 538.16 160.01000000000002 C 538.02 159.87000000000003 537.88 159.72000000000003 537.74 159.58 C 529.78 151.88000000000002 520.2 147.74 509.22 147.24 C 508.49 147.07000000000002 507.73 146.98000000000002 506.95000000000005 146.98000000000002 L 456.57000000000005 146.98000000000002 C 452.12000000000006 146.98000000000002 448.35 149.89000000000001 447.05000000000007 153.92000000000002 C 441.63000000000005 149.78000000000003 435.14000000000004 147.61 428.05000000000007 147.61 L 373.30000000000007 147.61 C 363.7300000000001 147.61 355.4100000000001 150.93 348.5900000000001 157.47000000000003 C 347.5400000000001 158.47000000000003 346.5900000000001 159.53000000000003 345.6900000000001 160.62000000000003 C 345.60000000000014 160.53000000000003 345.5200000000001 160.44000000000003 345.4300000000001 160.36000000000004 C 345.41000000000014 160.34000000000003 345.3800000000001 160.32000000000005 345.3600000000001 160.29000000000005 C 345.22000000000014 160.15000000000006 345.08000000000015 160.00000000000006 344.9300000000001 159.86000000000004 C 344.91000000000014 159.84000000000003 344.8800000000001 159.82000000000005 344.8600000000001 159.79000000000005 C 344.72000000000014 159.65000000000006 344.58000000000015 159.50000000000006 344.4300000000001 159.36000000000004 C 344.41000000000014 159.34000000000003 344.3800000000001 159.32000000000005 344.3600000000001 159.29000000000005 C 344.22000000000014 159.15000000000006 344.08000000000015 159.00000000000006 343.9300000000001 158.86000000000004 C 343.91000000000014 158.84000000000003 343.8800000000001 158.82000000000005 343.8600000000001 158.79000000000005 C 343.72000000000014 158.65000000000006 343.58000000000015 158.50000000000006 343.4300000000001 158.36000000000004 C 343.41000000000014 158.34000000000003 343.3800000000001 158.32000000000005 343.3600000000001 158.29000000000005 C 343.22000000000014 158.15000000000006 343.08000000000015 158.00000000000006 342.9300000000001 157.86000000000004 C 342.91000000000014 157.84000000000003 342.8800000000001 157.82000000000005 342.8600000000001 157.79000000000005 C 342.72000000000014 157.65000000000006 342.58000000000015 157.50000000000006 342.4300000000001 157.36000000000004 C 342.41000000000014 157.34000000000003 342.3800000000001 157.32000000000005 342.3600000000001 157.29000000000005 C 342.22000000000014 157.15000000000006 342.08000000000015 157.00000000000006 341.9300000000001 156.86000000000004 C 341.91000000000014 156.84000000000003 341.8800000000001 156.82000000000005 341.8600000000001 156.79000000000005 C 341.72000000000014 156.65000000000006 341.58000000000015 156.50000000000006 341.4300000000001 156.36000000000004 C 335.5100000000001 150.64000000000004 327.9600000000001 147.62000000000003 319.60000000000014 147.62000000000003 L 264.85000000000014 147.62000000000003 C 255.28000000000014 147.62000000000003 246.96000000000015 150.94000000000003 240.14000000000013 157.48000000000002 C 238.70000000000013 158.85000000000002 237.42000000000013 160.32000000000002 236.28000000000011 161.85000000000002 C 236.2600000000001 161.83 236.24000000000012 161.81000000000003 236.2200000000001 161.79000000000002 C 236.12000000000012 161.68 236.0100000000001 161.59000000000003 235.90000000000012 161.48000000000002 C 235.84000000000012 161.42000000000002 235.78000000000011 161.35000000000002 235.7200000000001 161.29000000000002 C 235.62000000000012 161.18 235.5100000000001 161.09000000000003 235.40000000000012 160.98000000000002 C 235.34000000000012 160.92000000000002 235.28000000000011 160.85000000000002 235.2200000000001 160.79000000000002 C 235.12000000000012 160.68 235.0100000000001 160.59000000000003 234.90000000000012 160.48000000000002 C 234.84000000000012 160.42000000000002 234.78000000000011 160.35000000000002 234.7200000000001 160.29000000000002 C 234.62000000000012 160.18 234.5100000000001 160.09000000000003 234.40000000000012 159.98000000000002 C 234.34000000000012 159.92000000000002 234.28000000000011 159.85000000000002 234.2200000000001 159.79000000000002 C 234.12000000000012 159.68 234.0100000000001 159.59000000000003 233.90000000000012 159.48000000000002 C 233.84000000000012 159.42000000000002 233.78000000000011 159.35000000000002 233.7200000000001 159.29000000000002 C 233.62000000000012 159.18 233.5100000000001 159.09000000000003 233.40000000000012 158.98000000000002 C 233.34000000000012 158.92000000000002 233.28000000000011 158.85000000000002 233.2200000000001 158.79000000000002 C 233.12000000000012 158.68 233.0100000000001 158.59000000000003 232.90000000000012 158.48000000000002 C 232.84000000000012 158.42000000000002 232.78000000000011 158.35000000000002 232.7200000000001 158.29000000000002 C 232.62000000000012 158.18 232.5100000000001 158.09000000000003 232.40000000000012 157.98000000000002 C 232.34000000000012 157.92000000000002 232.28000000000011 157.85000000000002 232.2200000000001 157.79000000000002 C 225.6700000000001 151.14000000000001 217.30000000000013 147.63000000000002 208.03000000000011 147.63000000000002 L 135.80000000000013 147.63000000000002 C 131.32000000000014 147.63000000000002 127.52000000000012 150.58 126.25000000000013 154.65000000000003 C 125.96000000000012 154.43000000000004 125.69000000000013 154.20000000000005 125.39000000000013 153.98000000000005 C 119.51000000000013 149.77000000000004 112.86000000000013 147.63000000000005 105.62000000000013 147.63000000000005 L 51.92 147.63000000000005 C 43.730000000000004 147.63000000000005 36.36 150.72000000000006 30.630000000000003 156.56000000000006 C 24.94 162.35000000000005 21.940000000000005 169.77000000000007 21.940000000000005 178.03000000000006 C 21.940000000000005 185.33000000000007 24.360000000000007 192.00000000000006 28.980000000000004 197.48000000000005 C 27.390000000000004 198.22000000000006 26.000000000000004 199.37000000000003 24.970000000000006 200.85000000000005 C 23.110000000000007 203.54000000000005 22.670000000000005 206.96000000000006 23.810000000000006 210.03000000000006 C 25.710000000000004 215.15000000000006 28.590000000000007 219.56000000000006 32.410000000000004 223.20000000000005 C 32.580000000000005 223.37000000000003 32.74 223.54000000000005 32.910000000000004 223.70000000000005 C 33.080000000000005 223.87000000000003 33.24 224.04000000000005 33.410000000000004 224.20000000000005 C 33.580000000000005 224.37000000000003 33.74 224.54000000000005 33.910000000000004 224.70000000000005 C 34.080000000000005 224.87000000000003 34.24 225.04000000000005 34.410000000000004 225.20000000000005 C 34.580000000000005 225.37000000000003 34.74 225.54000000000005 34.910000000000004 225.70000000000005 C 35.080000000000005 225.87000000000003 35.24 226.04000000000005 35.410000000000004 226.20000000000005 C 35.580000000000005 226.37000000000003 35.74 226.54000000000005 35.910000000000004 226.70000000000005 C 36.080000000000005 226.87000000000003 36.24 227.04000000000005 36.410000000000004 227.20000000000005 C 36.580000000000005 227.37000000000003 36.74 227.54000000000005 36.910000000000004 227.70000000000005 C 37.080000000000005 227.87000000000003 37.24 228.04000000000005 37.410000000000004 228.20000000000005 C 37.580000000000005 228.37000000000003 37.74 228.54000000000005 37.910000000000004 228.70000000000005 C 38.080000000000005 228.87000000000003 38.24 229.04000000000005 38.410000000000004 229.20000000000005 C 38.580000000000005 229.37000000000003 38.74 229.54000000000005 38.910000000000004 229.70000000000005 C 39.080000000000005 229.87000000000003 39.24 230.04000000000005 39.410000000000004 230.20000000000005 C 39.580000000000005 230.37000000000003 39.74 230.54000000000005 39.910000000000004 230.70000000000005 C 40.080000000000005 230.87000000000003 40.24 231.04000000000005 40.410000000000004 231.20000000000005 C 40.580000000000005 231.37000000000003 40.74 231.54000000000005 40.910000000000004 231.70000000000005 C 41.080000000000005 231.87000000000003 41.24 232.04000000000005 41.410000000000004 232.20000000000005 C 41.580000000000005 232.37000000000003 41.74 232.54000000000005 41.910000000000004 232.70000000000005 C 43.260000000000005 234.04000000000005 44.720000000000006 235.30000000000004 46.31 236.44000000000005 C 52.18 240.65000000000006 58.760000000000005 242.79000000000005 65.87 242.79000000000005 L 118.53 242.79000000000005 C 121.04 242.79000000000005 123.46000000000001 242.48000000000005 125.8 241.88000000000005 L 125.8 247.14000000000004 C 125.8 250.03000000000003 127.03 252.62000000000003 128.99 254.45000000000005 C 129.15 254.62000000000003 129.32000000000002 254.79000000000005 129.49 254.95000000000005 C 129.65 255.12000000000003 129.82000000000002 255.29000000000005 129.99 255.45000000000005 C 130.15 255.62000000000003 130.32000000000002 255.79000000000005 130.49 255.95000000000005 C 130.65 256.12000000000006 130.82000000000002 256.29 130.99 256.45000000000005 C 131.15 256.62000000000006 131.32000000000002 256.79 131.49 256.95000000000005 C 131.65 257.12000000000006 131.82000000000002 257.29 131.99 257.45000000000005 C 132.15 257.62000000000006 132.32000000000002 257.79 132.49 257.95000000000005 C 132.65 258.12000000000006 132.82000000000002 258.29 132.99 258.45000000000005 C 133.15 258.62000000000006 133.32000000000002 258.79 133.49 258.95000000000005 C 133.65 259.12000000000006 133.82000000000002 259.29 133.99 259.45000000000005 C 134.15 259.62000000000006 134.32000000000002 259.79 134.49 259.95000000000005 C 134.65 260.12000000000006 134.82000000000002 260.29 134.99 260.45000000000005 C 135.15 260.62000000000006 135.32000000000002 260.79 135.49 260.95000000000005 C 135.65 261.12000000000006 135.82000000000002 261.29 135.99 261.45000000000005 C 136.15 261.62000000000006 136.32000000000002 261.79 136.49 261.95000000000005 C 136.65 262.12000000000006 136.82000000000002 262.29 136.99 262.45000000000005 C 137.15 262.62000000000006 137.32000000000002 262.79 137.49 262.95000000000005 C 137.65 263.12000000000006 137.82000000000002 263.29 137.99 263.45000000000005 C 138.15 263.62000000000006 138.32000000000002 263.79 138.49 263.95000000000005 C 140.32000000000002 265.91 142.91 267.14000000000004 145.8 267.14000000000004 L 159.45000000000002 267.14000000000004 C 160.55 269.03000000000003 161.92000000000002 270.78000000000003 163.58 272.37000000000006 C 163.63000000000002 272.4100000000001 163.68 272.45000000000005 163.72 272.50000000000006 C 163.84 272.62000000000006 163.95 272.75000000000006 164.08 272.87000000000006 C 164.13000000000002 272.9100000000001 164.18 272.95000000000005 164.22 273.00000000000006 C 164.34 273.12000000000006 164.45 273.25000000000006 164.58 273.37000000000006 C 164.63000000000002 273.4100000000001 164.68 273.45000000000005 164.72 273.50000000000006 C 164.84 273.62000000000006 164.95 273.75000000000006 165.08 273.87000000000006 C 165.13000000000002 273.9100000000001 165.18 273.95000000000005 165.22 274.00000000000006 C 165.34 274.12000000000006 165.45 274.25000000000006 165.58 274.37000000000006 C 165.63000000000002 274.4100000000001 165.68 274.45000000000005 165.72 274.50000000000006 C 165.84 274.62000000000006 165.95 274.75000000000006 166.08 274.87000000000006 C 166.13000000000002 274.9100000000001 166.18 274.95000000000005 166.22 275.00000000000006 C 166.34 275.12000000000006 166.45 275.25000000000006 166.58 275.37000000000006 C 166.63000000000002 275.4100000000001 166.68 275.45000000000005 166.72 275.50000000000006 C 166.84 275.62000000000006 166.95 275.75000000000006 167.08 275.87000000000006 C 167.13000000000002 275.9100000000001 167.18 275.95000000000005 167.22 276.00000000000006 C 167.34 276.12000000000006 167.45 276.25000000000006 167.58 276.37000000000006 C 167.63000000000002 276.4100000000001 167.68 276.45000000000005 167.72 276.50000000000006 C 167.84 276.62000000000006 167.95 276.75000000000006 168.08 276.87000000000006 C 168.13000000000002 276.9100000000001 168.18 276.95000000000005 168.22 277.00000000000006 C 168.34 277.12000000000006 168.45 277.25000000000006 168.58 277.37000000000006 C 168.63000000000002 277.4100000000001 168.68 277.45000000000005 168.72 277.50000000000006 C 168.84 277.62000000000006 168.95 277.75000000000006 169.08 277.87000000000006 C 169.13000000000002 277.9100000000001 169.18 277.95000000000005 169.22 278.00000000000006 C 169.34 278.12000000000006 169.45 278.25000000000006 169.58 278.37000000000006 C 169.63000000000002 278.4100000000001 169.68 278.45000000000005 169.72 278.50000000000006 C 169.84 278.62000000000006 169.95 278.75000000000006 170.08 278.87000000000006 C 170.13000000000002 278.9100000000001 170.18 278.95000000000005 170.22 279.00000000000006 C 170.34 279.12000000000006 170.45 279.25000000000006 170.58 279.37000000000006 C 170.63000000000002 279.4100000000001 170.68 279.45000000000005 170.72 279.50000000000006 C 170.84 279.62000000000006 170.95 279.75000000000006 171.08 279.87000000000006 C 171.13000000000002 279.9100000000001 171.18 279.95000000000005 171.22 280.00000000000006 C 171.34 280.12000000000006 171.45 280.25000000000006 171.58 280.37000000000006 C 171.63000000000002 280.4100000000001 171.68 280.45000000000005 171.72 280.50000000000006 C 171.84 280.62000000000006 171.95 280.75000000000006 172.08 280.87000000000006 C 172.13000000000002 280.9100000000001 172.18 280.95000000000005 172.22 281.00000000000006 C 172.34 281.12000000000006 172.45 281.25000000000006 172.58 281.37000000000006 C 172.63000000000002 281.4100000000001 172.68 281.45000000000005 172.72 281.50000000000006 C 172.84 281.62000000000006 172.95 281.75000000000006 173.08 281.87000000000006 C 173.13000000000002 281.9100000000001 173.18 281.95000000000005 173.22 282.00000000000006 C 173.34 282.12000000000006 173.45 282.25000000000006 173.58 282.37000000000006 C 178.16000000000003 286.76000000000005 183.99 289.0900000000001 190.41000000000003 289.0900000000001 L 218.60000000000002 289.0900000000001 C 218.72000000000003 289.0900000000001 218.84000000000003 289.0800000000001 218.96000000000004 289.0700000000001 C 219.28000000000003 289.4700000000001 219.63000000000002 289.8500000000001 220.00000000000003 290.2000000000001 C 220.16000000000003 290.3700000000001 220.33000000000004 290.5400000000001 220.50000000000003 290.7000000000001 C 220.66000000000003 290.8700000000001 220.83000000000004 291.0400000000001 221.00000000000003 291.2000000000001 C 221.16000000000003 291.3700000000001 221.33000000000004 291.5400000000001 221.50000000000003 291.7000000000001 C 221.66000000000003 291.8700000000001 221.83000000000004 292.0400000000001 222.00000000000003 292.2000000000001 C 222.16000000000003 292.3700000000001 222.33000000000004 292.5400000000001 222.50000000000003 292.7000000000001 C 222.66000000000003 292.8700000000001 222.83000000000004 293.0400000000001 223.00000000000003 293.2000000000001 C 223.16000000000003 293.3700000000001 223.33000000000004 293.5400000000001 223.50000000000003 293.7000000000001 C 223.66000000000003 293.8700000000001 223.83000000000004 294.0400000000001 224.00000000000003 294.2000000000001 C 224.16000000000003 294.3700000000001 224.33000000000004 294.5400000000001 224.50000000000003 294.7000000000001 C 224.66000000000003 294.8700000000001 224.83000000000004 295.0400000000001 225.00000000000003 295.2000000000001 C 225.16000000000003 295.3700000000001 225.33000000000004 295.5400000000001 225.50000000000003 295.7000000000001 C 225.66000000000003 295.8700000000001 225.83000000000004 296.0400000000001 226.00000000000003 296.2000000000001 C 226.16000000000003 296.3700000000001 226.33000000000004 296.5400000000001 226.50000000000003 296.7000000000001 C 226.66000000000003 296.8700000000001 226.83000000000004 297.0400000000001 227.00000000000003 297.2000000000001 C 227.16000000000003 297.3700000000001 227.33000000000004 297.5400000000001 227.50000000000003 297.7000000000001 C 227.66000000000003 297.8700000000001 227.83000000000004 298.0400000000001 228.00000000000003 298.2000000000001 C 228.16000000000003 298.3700000000001 228.33000000000004 298.5400000000001 228.50000000000003 298.7000000000001 C 228.66000000000003 298.8700000000001 228.83000000000004 299.0400000000001 229.00000000000003 299.2000000000001 C 229.16000000000003 299.3700000000001 229.33000000000004 299.5400000000001 229.50000000000003 299.7000000000001 C 231.33000000000004 301.6600000000001 233.92000000000002 302.8900000000001 236.81000000000003 302.8900000000001 L 245.74000000000004 302.8900000000001 C 251.26000000000005 302.8900000000001 255.74000000000004 298.4100000000001 255.74000000000004 292.8900000000001 L 255.74000000000004 289.3200000000001 L 277.06000000000006 289.3200000000001 C 283.0300000000001 289.3200000000001 288.44000000000005 287.1800000000001 292.80000000000007 283.1600000000001 C 297.24000000000007 287.0300000000001 302.7100000000001 289.0900000000001 308.7300000000001 289.0900000000001 L 337.7300000000001 289.0900000000001 C 341.62000000000006 289.0900000000001 345.2700000000001 288.2300000000001 348.63000000000005 286.5600000000001 C 350.38000000000005 288.0600000000001 352.65000000000003 288.97000000000014 355.13000000000005 288.97000000000014 L 364.53000000000003 288.97000000000014 C 370.05 288.97000000000014 374.53000000000003 284.4900000000001 374.53000000000003 278.97000000000014 L 374.53000000000003 275.01000000000016 C 374.88000000000005 275.47000000000014 375.26000000000005 275.89000000000016 375.68 276.28000000000014 C 375.84000000000003 276.45000000000016 376.01 276.6200000000001 376.18 276.78000000000014 C 376.34000000000003 276.95000000000016 376.51 277.1200000000001 376.68 277.28000000000014 C 376.84000000000003 277.45000000000016 377.01 277.6200000000001 377.18 277.78000000000014 C 377.34000000000003 277.95000000000016 377.51 278.1200000000001 377.68 278.28000000000014 C 377.84000000000003 278.45000000000016 378.01 278.6200000000001 378.18 278.78000000000014 C 378.34000000000003 278.95000000000016 378.51 279.1200000000001 378.68 279.28000000000014 C 378.84000000000003 279.45000000000016 379.01 279.6200000000001 379.18 279.78000000000014 C 379.34000000000003 279.95000000000016 379.51 280.1200000000001 379.68 280.28000000000014 C 379.84000000000003 280.45000000000016 380.01 280.6200000000001 380.18 280.78000000000014 C 380.34000000000003 280.95000000000016 380.51 281.1200000000001 380.68 281.28000000000014 C 380.84000000000003 281.45000000000016 381.01 281.6200000000001 381.18 281.78000000000014 C 381.34000000000003 281.95000000000016 381.51 282.1200000000001 381.68 282.28000000000014 C 381.84000000000003 282.45000000000016 382.01 282.6200000000001 382.18 282.78000000000014 C 382.34000000000003 282.95000000000016 382.51 283.1200000000001 382.68 283.28000000000014 C 382.84000000000003 283.45000000000016 383.01 283.6200000000001 383.18 283.78000000000014 C 383.34000000000003 283.95000000000016 383.51 284.1200000000001 383.68 284.28000000000014 C 383.84000000000003 284.45000000000016 384.01 284.6200000000001 384.18 284.78000000000014 C 384.34000000000003 284.95000000000016 384.51 285.1200000000001 384.68 285.28000000000014 C 384.84000000000003 285.45000000000016 385.01 285.6200000000001 385.18 285.78000000000014 C 387.01 287.7400000000001 389.6 288.97000000000014 392.49 288.97000000000014 L 401.89 288.97000000000014 C 407.40999999999997 288.97000000000014 411.89 284.4900000000001 411.89 278.97000000000014 L 411.89 262.40000000000015 C 411.96999999999997 261.90000000000015 412.01 261.39000000000016 412.01 260.8700000000002 C 412.01 253.90000000000018 409.53 247.55000000000018 404.84 242.37000000000018 L 435.34999999999997 242.37000000000018 C 442.78999999999996 242.37000000000018 449.62999999999994 240.28000000000017 455.66999999999996 236.15000000000018 C 455.81999999999994 236.05000000000018 455.96 235.93000000000018 456.10999999999996 235.82000000000016 C 456.15999999999997 235.87000000000018 456.21 235.91000000000017 456.25999999999993 235.96000000000015 C 456.41999999999996 236.13000000000014 456.5899999999999 236.30000000000015 456.75999999999993 236.46000000000015 C 456.91999999999996 236.63000000000014 457.0899999999999 236.80000000000015 457.25999999999993 236.96000000000015 C 457.41999999999996 237.13000000000014 457.5899999999999 237.30000000000015 457.75999999999993 237.46000000000015 C 457.91999999999996 237.63000000000014 458.0899999999999 237.80000000000015 458.25999999999993 237.96000000000015 C 458.41999999999996 238.13000000000014 458.5899999999999 238.30000000000015 458.75999999999993 238.46000000000015 C 458.91999999999996 238.63000000000014 459.0899999999999 238.80000000000015 459.25999999999993 238.96000000000015 C 461.0899999999999 240.92000000000016 463.68999999999994 242.16000000000014 466.5799999999999 242.16000000000014 L 483.43999999999994 242.16000000000014 C 488.9599999999999 242.16000000000014 493.43999999999994 237.68000000000015 493.43999999999994 232.16000000000014 L 493.43999999999994 193.24000000000012 L 513.6099999999999 193.24000000000012 L 513.6099999999999 222.16000000000014 C 513.6099999999999 225.05000000000013 514.8399999999999 227.64000000000013 516.8 229.47000000000014 C 516.9599999999999 229.64000000000013 517.13 229.81000000000014 517.3 229.97000000000014 C 517.4599999999999 230.14000000000013 517.63 230.31000000000014 517.8 230.47000000000014 C 517.9599999999999 230.64000000000013 518.13 230.81000000000014 518.3 230.97000000000014 C 518.4599999999999 231.14000000000013 518.63 231.31000000000014 518.8 231.47000000000014 C 518.9599999999999 231.64000000000013 519.13 231.81000000000014 519.3 231.97000000000014 C 519.4599999999999 232.14000000000013 519.63 232.31000000000014 519.8 232.47000000000014 C 519.9599999999999 232.64000000000013 520.13 232.81000000000014 520.3 232.97000000000014 C 520.4599999999999 233.14000000000013 520.63 233.31000000000014 520.8 233.47000000000014 C 520.9599999999999 233.64000000000013 521.13 233.81000000000014 521.3 233.97000000000014 C 521.4599999999999 234.14000000000013 521.63 234.31000000000014 521.8 234.47000000000014 C 521.9599999999999 234.64000000000013 522.13 234.81000000000014 522.3 234.97000000000014 C 522.4599999999999 235.14000000000013 522.63 235.31000000000014 522.8 235.47000000000014 C 522.9599999999999 235.64000000000013 523.13 235.81000000000014 523.3 235.97000000000014 C 523.4599999999999 236.14000000000013 523.63 236.31000000000014 523.8 236.47000000000014 C 523.9599999999999 236.64000000000013 524.13 236.81000000000014 524.3 236.97000000000014 C 524.4599999999999 237.14000000000013 524.63 237.31000000000014 524.8 237.47000000000014 C 524.9599999999999 237.64000000000013 525.13 237.81000000000014 525.3 237.97000000000014 C 525.4599999999999 238.14000000000013 525.63 238.31000000000014 525.8 238.47000000000014 C 525.9599999999999 238.64000000000013 526.13 238.81000000000014 526.3 238.97000000000014 C 528.13 240.93000000000015 530.7199999999999 242.16000000000014 533.6099999999999 242.16000000000014 L 550.4699999999999 242.16000000000014 C 555.9899999999999 242.16000000000014 560.4699999999999 237.68000000000015 560.4699999999999 232.16000000000014 L 560.4699999999999 201.7 C 560.6099999999999 201.04 560.68 200.35999999999999 560.68 199.67 C 560.67 188.01 556.32 177.89 547.74 169.58 z"
   stroke-linecap="round"
   id="path4" />
</g>
<g
   transform="matrix(1 0 0 1 339.8 520.54)"
   id="g5">
<path
   style="stroke: none; stroke-width: 1; stroke-dasharray: none; stroke-linecap: butt; stroke-dashoffset: 0; stroke-linejoin: miter; stroke-miterlimit: 4; fill: rgb(220,220,220); fill-rule: nonzero; opacity: 1;"
   vector-effect="non-scaling-stroke"
   transform=" translate(-80.14, -190.18)"
   d="M 128.32 202.36 C 128.32 207.91000000000003 126.36999999999999 212.70000000000002 122.49 216.72000000000003 C 118.6 220.75000000000003 113.96 222.76000000000002 108.53999999999999 222.76000000000002 L 55.88 222.76000000000002 C 50.88 222.76000000000002 46.300000000000004 221.27 42.14 218.28000000000003 C 37.980000000000004 215.30000000000004 34.99 211.38000000000002 33.19 206.52000000000004 L 108.13 206.31000000000003 C 110.89999999999999 206.31000000000003 112.28999999999999 204.99000000000004 112.28999999999999 202.35000000000002 C 112.28999999999999 199.58 110.89999999999999 198.19000000000003 108.13 198.19000000000003 L 51.92999999999999 198.19000000000003 C 46.379999999999995 198.19000000000003 41.66 196.21000000000004 37.779999999999994 192.26000000000002 C 33.88999999999999 188.31000000000003 31.949999999999996 183.55 31.949999999999996 178.00000000000003 C 31.949999999999996 172.31000000000003 33.88999999999999 167.49000000000004 37.779999999999994 163.53000000000003 C 41.66 159.57000000000002 46.379999999999995 157.60000000000002 51.92999999999999 157.60000000000002 L 105.63999999999999 157.60000000000002 C 110.76999999999998 157.60000000000002 115.41999999999999 159.09000000000003 119.58999999999999 162.08 C 123.74999999999999 165.07000000000002 126.66999999999999 168.98000000000002 128.32999999999998 173.84 L 51.92 173.84 C 49.28 173.84 47.96 175.23 47.96 178 C 47.96 180.64 49.28 181.96 51.92 181.96 L 108.53999999999999 181.96 C 113.94999999999999 181.96 118.6 183.97 122.49 188 C 126.37 192.02 128.32 196.81 128.32 202.36 z"
   stroke-linecap="round"
   id="path5" />
</g>
<g
   transform="matrix(1 0 0 1 443.66 532.73)"
   id="g6">
<path
   style="stroke: none; stroke-width: 1; stroke-dasharray: none; stroke-linecap: butt; stroke-dashoffset: 0; stroke-linejoin: miter; stroke-miterlimit: 4; fill: rgb(220,220,220); fill-rule: nonzero; opacity: 1;"
   vector-effect="non-scaling-stroke"
   transform=" translate(-184, -202.36)"
   d="M 232.19 198.2 C 232.19 205 229.82999999999998 210.79 225.10999999999999 215.57999999999998 C 220.39 220.36999999999998 214.7 222.76 208.04 222.76 L 167.87 222.76 C 162.18 222.76 156.84 221.29999999999998 151.84 218.39 L 151.84 247.11999999999998 L 135.81 247.11999999999998 L 135.81 157.60999999999996 L 208.04000000000002 157.60999999999996 C 214.70000000000002 157.60999999999996 220.39000000000001 159.99999999999994 225.11 164.78999999999996 C 229.83 169.57999999999996 232.19000000000003 175.29999999999995 232.19000000000003 181.95999999999998 L 232.19000000000003 198.2 z M 216.16 198.2 L 216.16 181.95999999999998 C 216.16 179.73999999999998 215.35999999999999 177.82999999999998 213.77 176.23999999999998 C 212.17000000000002 174.64999999999998 210.26000000000002 173.85 208.05 173.85 L 151.85000000000002 173.85 L 151.85000000000002 190.29 C 151.85000000000002 194.73 153.41000000000003 198.54999999999998 156.53000000000003 201.73999999999998 C 159.65000000000003 204.92999999999998 163.43000000000004 206.52999999999997 167.87000000000003 206.52999999999997 L 208.04000000000002 206.52999999999997 C 210.26000000000002 206.52999999999997 212.17000000000002 205.72999999999996 213.76000000000002 204.14 C 215.36 202.54 216.16 200.56 216.16 198.2 z"
   stroke-linecap="round"
   id="path6" />
</g>
<g
   transform="matrix(1 0 0 1 549.81 520.34)"
   id="g7">
<path
   style="stroke: none; stroke-width: 1; stroke-dasharray: none; stroke-linecap: butt; stroke-dashoffset: 0; stroke-linejoin: miter; stroke-miterlimit: 4; fill: rgb(220,220,220); fill-rule: nonzero; opacity: 1;"
   vector-effect="non-scaling-stroke"
   transform=" translate(-290.15, -189.97)"
   d="M 340.63 206.11 C 338.96999999999997 210.97000000000003 335.95 214.89000000000001 331.58 217.87 C 327.21 220.86 322.32 222.35 316.9 222.35 L 264.85999999999996 222.35 C 257.91999999999996 222.35 251.98999999999995 219.98999999999998 247.05999999999995 215.26999999999998 C 242.12999999999994 210.54999999999998 239.66999999999996 204.79 239.66999999999996 197.98999999999998 L 239.66999999999996 181.74999999999997 C 239.66999999999996 175.08999999999997 242.12999999999997 169.39999999999998 247.05999999999995 164.67999999999998 C 251.97999999999993 159.95999999999998 257.91999999999996 157.59999999999997 264.85999999999996 157.59999999999997 L 319.60999999999996 157.59999999999997 C 325.43999999999994 157.59999999999997 330.4 159.57999999999996 334.48999999999995 163.52999999999997 C 338.5799999999999 167.48999999999998 340.62999999999994 172.23999999999998 340.62999999999994 177.78999999999996 C 340.62999999999994 183.33999999999997 338.5799999999999 188.08999999999997 334.48999999999995 192.04999999999995 C 330.4 196.00999999999996 325.43999999999994 197.97999999999996 319.60999999999996 197.97999999999996 L 256.53999999999996 197.97999999999996 C 256.53999999999996 200.19999999999996 257.34 202.10999999999996 258.92999999999995 203.69999999999996 C 260.5199999999999 205.29999999999995 262.49999999999994 206.08999999999995 264.85999999999996 206.08999999999995 L 340.63 206.08999999999995 z M 323.77 177.8 C 323.77 175.03 322.38 173.64000000000001 319.60999999999996 173.64000000000001 L 264.85999999999996 173.64000000000001 C 262.49999999999994 173.64000000000001 260.52 174.44000000000003 258.92999999999995 176.03 C 257.3299999999999 177.63 256.53999999999996 179.54 256.53999999999996 181.75 L 319.60999999999996 181.75 C 322.38 181.75 323.77 180.43 323.77 177.8 z"
   stroke-linecap="round"
   id="path7" />
</g>
<g
   transform="matrix(1 0 0 1 658.26 520.34)"
   id="g8">
<path
   style="stroke: none; stroke-width: 1; stroke-dasharray: none; stroke-linecap: butt; stroke-dashoffset: 0; stroke-linejoin: miter; stroke-miterlimit: 4; fill: rgb(220,220,220); fill-rule: nonzero; opacity: 1;"
   vector-effect="non-scaling-stroke"
   transform=" translate(-398.6, -189.97)"
   d="M 449.08 206.11 C 447.41999999999996 210.97000000000003 444.4 214.89000000000001 440.03 217.87 C 435.65999999999997 220.86 430.77 222.35 425.34999999999997 222.35 L 373.30999999999995 222.35 C 366.36999999999995 222.35 360.43999999999994 219.98999999999998 355.50999999999993 215.26999999999998 C 350.5799999999999 210.54999999999998 348.11999999999995 204.79 348.11999999999995 197.98999999999998 L 348.11999999999995 181.74999999999997 C 348.11999999999995 175.08999999999997 350.5799999999999 169.39999999999998 355.50999999999993 164.67999999999998 C 360.42999999999995 159.95999999999998 366.36999999999995 157.59999999999997 373.30999999999995 157.59999999999997 L 428.05999999999995 157.59999999999997 C 433.88999999999993 157.59999999999997 438.84999999999997 159.57999999999996 442.93999999999994 163.52999999999997 C 447.0299999999999 167.48999999999998 449.0799999999999 172.23999999999998 449.0799999999999 177.78999999999996 C 449.0799999999999 183.33999999999997 447.0299999999999 188.08999999999997 442.93999999999994 192.04999999999995 C 438.84999999999997 196.00999999999996 433.88999999999993 197.97999999999996 428.05999999999995 197.97999999999996 L 364.98999999999995 197.97999999999996 C 364.98999999999995 200.19999999999996 365.78999999999996 202.10999999999996 367.37999999999994 203.69999999999996 C 368.9699999999999 205.29999999999995 370.94999999999993 206.08999999999995 373.30999999999995 206.08999999999995 L 449.08 206.08999999999995 z M 432.22 177.8 C 432.22 175.03 430.83000000000004 173.64000000000001 428.06 173.64000000000001 L 373.31 173.64000000000001 C 370.95 173.64000000000001 368.97 174.44000000000003 367.38 176.03 C 365.78 177.63 364.99 179.54 364.99 181.75 L 428.06 181.75 C 430.83 181.75 432.22 180.43 432.22 177.8 z"
   stroke-linecap="round"
   id="path8" />
</g>
<g
   transform="matrix(1 0 0 1 758.28 519.91)"
   id="g9">
<path
   style="stroke: none; stroke-width: 1; stroke-dasharray: none; stroke-linecap: butt; stroke-dashoffset: 0; stroke-linejoin: miter; stroke-miterlimit: 4; fill: rgb(220,220,220); fill-rule: nonzero; opacity: 1;"
   vector-effect="non-scaling-stroke"
   transform=" translate(-498.63, -189.56)"
   d="M 540.67 189.66 L 540.4599999999999 189.66 L 540.4599999999999 222.13 L 523.6 222.13 L 523.6 189.66 L 523.8100000000001 189.66 C 523.8100000000001 185.22 522.1800000000001 181.41 518.9200000000001 178.21 C 515.6600000000001 175.02 511.6700000000001 173.42000000000002 506.95000000000005 173.42000000000002 L 506.95000000000005 173.21 L 473.44000000000005 173.21 L 473.44000000000005 222.13 L 456.58000000000004 222.13 L 456.58000000000004 156.98 L 506.96000000000004 156.98 L 506.96000000000004 157.19 C 516.25 157.19 524.2 160.38 530.7900000000001 166.77 C 537.37 173.15 540.67 180.78 540.67 189.66 z"
   stroke-linecap="round"
   id="path9" />
</g>
<g
   transform="matrix(1 0 0 1 454.18 581.38)"
   id="g10">
<path
   style="stroke: none; stroke-width: 1; stroke-dasharray: none; stroke-linecap: butt; stroke-dashoffset: 0; stroke-linejoin: miter; stroke-miterlimit: 4; fill: rgb(220,220,220); fill-rule: nonzero; opacity: 1;"
   vector-effect="non-scaling-stroke"
   transform=" translate(-194.52, -251.01)"
   d="M 208.61 232.98 L 180.42000000000002 232.98 C 176.48000000000002 232.98 173.15 234.29999999999998 170.44000000000003 236.92 C 167.73000000000002 239.54999999999998 166.38000000000002 242.72 166.38000000000002 246.42999999999998 L 166.38000000000002 255.48 C 166.38000000000002 259.27 167.75000000000003 262.48 170.50000000000003 265.11 C 173.24000000000004 267.74 176.55000000000004 269.05 180.42000000000002 269.05 L 208.61 269.05 C 212.48000000000002 269.05 215.78 267.74 218.53 265.11 C 221.27 262.48 222.65 259.27000000000004 222.65 255.48000000000002 L 222.65 246.43 C 222.65 242.72 221.3 239.55 218.59 236.92000000000002 C 215.88 234.3 212.55 232.98 208.61 232.98 z M 213.25 255.49 C 213.25 256.73 212.8 257.79 211.92 258.68 C 211.03 259.57 209.92999999999998 260.01 208.60999999999999 260.01 L 180.42 260.01 C 179.1 260.01 178 259.57 177.10999999999999 258.68 C 176.22 257.79 175.77999999999997 256.73 175.77999999999997 255.49 L 175.77999999999997 246.44 C 175.77999999999997 245.2 176.21999999999997 244.14 177.10999999999999 243.25 C 177.99999999999997 242.36 179.1 241.92 180.42 241.92 L 208.60999999999999 241.92 C 209.92 241.92 211.02999999999997 242.36999999999998 211.92 243.25 C 212.80999999999997 244.14 213.25 245.2 213.25 246.44 L 213.25 255.49 z"
   stroke-linecap="round"
   id="path10" />
</g>
<g
   transform="matrix(1 0 0 1 513.34 588.28)"
   id="g11">
<path
   style="stroke: none; stroke-width: 1; stroke-dasharray: none; stroke-linecap: butt; stroke-dashoffset: 0; stroke-linejoin: miter; stroke-miterlimit: 4; fill: rgb(220,220,220); fill-rule: nonzero; opacity: 1;"
   vector-effect="non-scaling-stroke"
   transform=" translate(-253.68, -257.92)"
   d="M 267.08 232.98 L 226.82999999999998 232.98 L 226.82999999999998 282.86 L 235.76 282.86 L 235.76 266.85 C 238.54 268.47 241.51999999999998 269.29 244.69 269.29 L 267.08 269.29 C 270.78999999999996 269.29 273.96 267.96000000000004 276.59 265.29 C 279.21999999999997 262.62 280.53 259.39000000000004 280.53 255.60000000000002 L 280.53 246.55 C 280.53 242.84 279.21 239.65 276.59 236.98000000000002 C 273.96 234.32 270.79 232.98 267.08 232.98 z M 271.6 255.6 C 271.6 256.92 271.15000000000003 258.02 270.27000000000004 258.90999999999997 C 269.38000000000005 259.79999999999995 268.32000000000005 260.23999999999995 267.08000000000004 260.23999999999995 L 244.69000000000005 260.23999999999995 C 242.21000000000006 260.23999999999995 240.11000000000004 259.34999999999997 238.37000000000006 257.56999999999994 C 236.63000000000005 255.78999999999994 235.76000000000005 253.66999999999993 235.76000000000005 251.18999999999994 L 235.76000000000005 242.02999999999994 L 267.08000000000004 242.02999999999994 C 268.32000000000005 242.02999999999994 269.38000000000005 242.47999999999993 270.27000000000004 243.35999999999996 C 271.16 244.24999999999994 271.6 245.30999999999995 271.6 246.54999999999995 L 271.6 255.6 z"
   stroke-linecap="round"
   id="path11" />
</g>
<g
   transform="matrix(1 0 0 1 572.5 581.37)"
   id="g12">
<path
   style="stroke: none; stroke-width: 1; stroke-dasharray: none; stroke-linecap: butt; stroke-dashoffset: 0; stroke-linejoin: miter; stroke-miterlimit: 4; fill: rgb(220,220,220); fill-rule: nonzero; opacity: 1;"
   vector-effect="non-scaling-stroke"
   transform=" translate(-312.85, -251.01)"
   d="M 337.55 252.18 C 339.83 249.98000000000002 340.97 247.33 340.97 244.23000000000002 C 340.97 241.14000000000001 339.83000000000004 238.49 337.55 236.28000000000003 C 335.27000000000004 234.08000000000004 332.5 232.97000000000003 329.26 232.97000000000003 L 298.75 232.97000000000003 C 294.88 232.97000000000003 291.58 234.29000000000002 288.83 236.91000000000003 C 286.08 239.54000000000002 284.71 242.71000000000004 284.71 246.42000000000002 L 284.71 255.47000000000003 C 284.71 259.26000000000005 286.08 262.47 288.83 265.1 C 291.57 267.73 294.88 269.04 298.75 269.04 L 327.75 269.04 C 330.77 269.04 333.49 268.21000000000004 335.93 266.55 C 338.37 264.89 340.05 262.7 340.98 260 L 298.75 260 C 297.43 260 296.33 259.56 295.44 258.67 C 294.55 257.78000000000003 294.11 256.72 294.11 255.48000000000002 L 329.26 255.48000000000002 C 332.51 255.49 335.27 254.39 337.55 252.18 z M 295.44 243.25 C 296.33 242.36 297.43 241.92 298.75 241.92 L 329.26 241.92 C 330.81 241.92 331.58 242.69 331.58 244.23999999999998 C 331.58 245.70999999999998 330.81 246.43999999999997 329.26 246.43999999999997 L 294.11 246.43999999999997 C 294.11 245.2 294.55 244.14 295.44 243.25 z"
   stroke-linecap="round"
   id="path12" />
</g>
<g
   transform="matrix(1 0 0 1 628.26 581.15)"
   id="g13">
<path
   style="stroke: none; stroke-width: 1; stroke-dasharray: none; stroke-linecap: butt; stroke-dashoffset: 0; stroke-linejoin: miter; stroke-miterlimit: 4; fill: rgb(220,220,220); fill-rule: nonzero; opacity: 1;"
   vector-effect="non-scaling-stroke"
   transform=" translate(-368.6, -250.79)"
   d="M 386.51 238.09 C 382.84 234.53 378.40999999999997 232.75 373.23 232.75 L 373.23 232.63 L 345.16 232.63 L 345.16 268.94 L 354.56 268.94 L 354.56 241.68 L 373.24 241.68 L 373.24 241.8 C 375.87 241.8 378.09000000000003 242.69 379.91 244.47 C 381.73 246.25 382.64000000000004 248.38 382.64000000000004 250.85 L 382.52000000000004 250.85 L 382.52000000000004 268.95 L 391.92 268.95 L 391.92 250.85 L 392.04 250.85 C 392.02 245.9 390.18 241.64 386.51 238.09 z"
   stroke-linecap="round"
   id="path13" />
</g>
<g
   transform="matrix(1 0 0 1 735.28 584.04)"
   id="g14">
<path
   style="stroke: rgb(17,17,17); stroke-width: 5; stroke-dasharray: none; stroke-linecap: butt; stroke-dashoffset: 0; stroke-linejoin: miter; stroke-miterlimit: 10; fill: rgb(220,220,220); fill-rule: nonzero; opacity: 1;"
   vector-effect="non-scaling-stroke"
   transform=" translate(-475.62, -253.68)"
   d="M 550.21 242.45 C 550.0500000000001 242.28 549.88 242.10999999999999 549.71 241.95 C 549.5500000000001 241.78 549.38 241.60999999999999 549.21 241.45 C 549.0500000000001 241.28 548.88 241.10999999999999 548.71 240.95 C 548.5500000000001 240.78 548.38 240.60999999999999 548.21 240.45 C 548.0500000000001 240.28 547.88 240.10999999999999 547.71 239.95 C 547.5500000000001 239.78 547.38 239.60999999999999 547.21 239.45 C 547.0500000000001 239.28 546.88 239.10999999999999 546.71 238.95 C 546.5500000000001 238.78 546.38 238.60999999999999 546.21 238.45 C 546.0500000000001 238.28 545.88 238.10999999999999 545.71 237.95 C 545.5500000000001 237.78 545.38 237.60999999999999 545.21 237.45 C 545.0500000000001 237.28 544.88 237.10999999999999 544.71 236.95 C 544.5500000000001 236.78 544.38 236.60999999999999 544.21 236.45 C 544.0500000000001 236.28 543.88 236.10999999999999 543.71 235.95 C 543.5500000000001 235.78 543.38 235.60999999999999 543.21 235.45 C 543.0500000000001 235.28 542.88 235.10999999999999 542.71 234.95 C 542.5500000000001 234.78 542.38 234.60999999999999 542.21 234.45 C 542.0500000000001 234.28 541.88 234.10999999999999 541.71 233.95 C 541.5500000000001 233.78 541.38 233.60999999999999 541.21 233.45 C 541.0500000000001 233.28 540.88 233.10999999999999 540.71 232.95 C 539.22 231.32 537.08 230.29999999999998 534.7 230.29999999999998 L 406.54 230.29999999999998 C 402.03000000000003 230.29999999999998 398.38 233.95 398.38 238.45999999999998 L 398.38 258.90999999999997 C 398.38 261.28999999999996 399.40999999999997 263.42999999999995 401.03 264.91999999999996 C 401.19 265.09 401.35999999999996 265.25999999999993 401.53 265.41999999999996 C 401.69 265.59 401.85999999999996 265.75999999999993 402.03 265.91999999999996 C 402.19 266.09 402.35999999999996 266.25999999999993 402.53 266.41999999999996 C 402.69 266.59 402.85999999999996 266.75999999999993 403.03 266.91999999999996 C 403.19 267.09 403.35999999999996 267.25999999999993 403.53 267.41999999999996 C 403.69 267.59 403.85999999999996 267.75999999999993 404.03 267.91999999999996 C 404.19 268.09 404.35999999999996 268.25999999999993 404.53 268.41999999999996 C 404.69 268.59 404.85999999999996 268.75999999999993 405.03 268.91999999999996 C 405.19 269.09 405.35999999999996 269.25999999999993 405.53 269.41999999999996 C 405.69 269.59 405.85999999999996 269.75999999999993 406.03 269.91999999999996 C 406.19 270.09 406.35999999999996 270.25999999999993 406.53 270.41999999999996 C 406.69 270.59 406.85999999999996 270.75999999999993 407.03 270.91999999999996 C 407.19 271.09 407.35999999999996 271.25999999999993 407.53 271.41999999999996 C 407.69 271.59 407.85999999999996 271.75999999999993 408.03 271.91999999999996 C 408.19 272.09 408.35999999999996 272.25999999999993 408.53 272.41999999999996 C 408.69 272.59 408.85999999999996 272.75999999999993 409.03 272.91999999999996 C 409.19 273.09 409.35999999999996 273.25999999999993 409.53 273.41999999999996 C 409.69 273.59 409.85999999999996 273.75999999999993 410.03 273.91999999999996 C 410.19 274.09 410.35999999999996 274.25999999999993 410.53 274.41999999999996 C 412.02 276.04999999999995 414.15999999999997 277.06999999999994 416.53999999999996 277.06999999999994 L 544.7 277.06999999999994 C 549.21 277.06999999999994 552.86 273.41999999999996 552.86 268.9099999999999 L 552.86 248.45999999999992 C 552.86 246.07 551.83 243.94 550.21 242.45 z"
   stroke-linecap="round"
   id="path14" />
</g>









<g
   transform="matrix(1 0 0 1 301.31 625.2)"
   id="g24">
<path
   style="stroke: none; stroke-width: 1; stroke-dasharray: none; stroke-linecap: butt; stroke-dashoffset: 0; stroke-linejoin: miter; stroke-miterlimit: 4; fill: rgb(220,220,220); fill-rule: nonzero; opacity: 1;"
   vector-effect="non-scaling-stroke"
   transform=" translate(-41.65, -294.84)"
   d="M 54.8 335.76 C 52.239999999999995 335.76 50.16 333.68 50.15 331.12 C 50.089999999999996 309.43 50.059999999999995 297.48 45.42 292.84000000000003 C 40.78 288.20000000000005 28.830000000000002 288.17 7.140000000000001 288.11 C 4.58 288.1 2.500000000000001 286.02000000000004 2.500000000000001 283.46000000000004 C 2.500000000000001 280.90000000000003 4.580000000000001 278.82000000000005 7.140000000000001 278.81000000000006 C 28.830000000000002 278.75000000000006 40.78 278.7200000000001 45.42 274.08000000000004 C 48.08 271.42 49.36 266.35 49.84 256.59000000000003 L 49.970000000000006 253.92000000000004 L 52.620000000000005 254.23000000000005 C 54.470000000000006 254.44000000000005 56.2 254.69000000000005 57.75000000000001 254.98000000000005 L 59.690000000000005 255.33000000000004 L 59.800000000000004 257.30000000000007 C 60.300000000000004 266.61000000000007 61.57000000000001 271.4700000000001 64.18 274.08000000000004 C 66.49000000000001 276.39000000000004 70.55000000000001 277.64000000000004 77.75 278.24000000000007 L 79.76 278.4100000000001 L 80.02000000000001 280.4100000000001 C 80.24000000000001 282.1000000000001 80.43 283.9600000000001 80.59 285.94000000000005 L 80.79 288.44000000000005 L 78.29 288.63000000000005 C 70.76 289.22 66.54 290.4800000000001 64.18 292.84000000000003 C 59.540000000000006 297.48 59.510000000000005 309.43 59.45 331.12 C 59.44 333.68 57.35 335.76 54.8 335.76 z"
   stroke-linecap="round"
   id="path24" />
</g>
<g
   transform="matrix(1 0 0 1 301.4 625.06)"
   id="g25">
<path
   style="stroke: none; stroke-width: 1; stroke-dasharray: none; stroke-linecap: butt; stroke-dashoffset: 0; stroke-linejoin: miter; stroke-miterlimit: 4; fill: rgb(17,17,17); fill-rule: nonzero; opacity: 1;"
   vector-effect="non-scaling-stroke"
   transform=" translate(-41.74, -294.7)"
   d="M 52.33 256.71 C 54.1 256.90999999999997 55.76 257.15 57.3 257.43 C 57.809999999999995 266.79 59.08 272.51 62.41 275.84000000000003 C 65.33 278.76000000000005 70.09 280.1 77.53999999999999 280.73 C 77.75999999999999 282.42 77.94 284.22 78.1 286.14000000000004 C 70.33 286.75000000000006 65.41 288.08000000000004 62.41 291.07000000000005 C 57.04 296.44000000000005 57.01 308.03000000000003 56.94 331.11000000000007 C 56.94 332.2900000000001 55.97 333.25000000000006 54.79 333.25000000000006 C 53.61 333.25000000000006 52.64 332.2900000000001 52.64 331.11000000000007 C 52.58 308.0300000000001 52.54 296.44000000000005 47.17 291.07000000000005 C 41.800000000000004 285.70000000000005 30.21 285.6700000000001 7.130000000000003 285.6 C 5.950000000000003 285.6 4.990000000000002 284.63 4.990000000000002 283.45000000000005 C 4.990000000000002 282.27000000000004 5.950000000000002 281.30000000000007 7.130000000000003 281.30000000000007 C 30.21 281.24000000000007 41.800000000000004 281.20000000000005 47.17 275.83000000000004 C 50.6 272.44 51.85 266.5 52.33 256.71 M 47.6 251.14 L 47.34 256.46999999999997 C 46.900000000000006 265.42999999999995 45.800000000000004 270.16999999999996 43.650000000000006 272.32 C 39.74000000000001 276.23 27.470000000000006 276.27 7.130000000000003 276.32 C 3.2 276.33 0 279.53 0 283.46 C 0 287.39 3.2 290.59999999999997 7.13 290.60999999999996 C 27.459999999999997 290.66999999999996 39.74 290.69999999999993 43.650000000000006 294.60999999999996 C 47.56 298.52 47.60000000000001 310.78999999999996 47.650000000000006 331.12999999999994 C 47.660000000000004 335.05999999999995 50.870000000000005 338.25999999999993 54.800000000000004 338.25999999999993 C 58.730000000000004 338.25999999999993 61.940000000000005 335.05999999999995 61.95 331.12999999999994 C 62.010000000000005 310.79999999999995 62.040000000000006 298.5199999999999 65.95 294.60999999999996 C 67.83 292.72999999999996 71.7 291.65999999999997 78.49000000000001 291.12999999999994 L 83.48 290.73999999999995 L 83.08 285.74999999999994 C 82.92 283.72999999999996 82.72 281.81999999999994 82.5 280.0899999999999 L 81.98 276.0899999999999 L 77.96000000000001 275.74999999999994 C 71.48 275.19999999999993 67.78 274.13999999999993 65.95 272.30999999999995 C 63.85 270.2099999999999 62.760000000000005 265.67999999999995 62.300000000000004 257.15999999999997 L 62.09 253.21999999999997 L 58.21 252.50999999999996 C 56.59 252.21999999999997 54.81 251.94999999999996 52.910000000000004 251.73999999999995 L 47.6 251.14 L 47.6 251.14 z"
   stroke-linecap="round"
   id="path25" />
</g>
<g
   transform="matrix(1 0 0 1 314.46 569.79)"
   id="g26">
<path
   style="stroke: none; stroke-width: 1; stroke-dasharray: none; stroke-linecap: butt; stroke-dashoffset: 0; stroke-linejoin: miter; stroke-miterlimit: 4; fill: rgb(220,220,220); fill-rule: nonzero; opacity: 1;"
   vector-effect="non-scaling-stroke"
   transform=" translate(-54.8, -239.43)"
   d="M 50.11 244.86 C 50.13 242.05 50.14 239.04000000000002 50.15 235.8 C 50.16 233.24 52.239999999999995 231.16000000000003 54.8 231.16000000000003 C 57.36 231.16000000000003 59.44 233.24000000000004 59.449999999999996 235.8 C 59.459999999999994 238.8 59.47 241.60000000000002 59.489999999999995 244.23000000000002 L 59.51 246.34000000000003 L 57.43 246.71000000000004 C 56 246.96000000000004 54.48 247.18000000000004 52.91 247.37000000000003 L 50.099999999999994 247.70000000000005 L 50.11 244.86 z"
   stroke-linecap="round"
   id="path26" />
</g>
<g
   transform="matrix(1 0 0 1 314.45 569.95)"
   id="g27">
<path
   style="stroke: none; stroke-width: 1; stroke-dasharray: none; stroke-linecap: butt; stroke-dashoffset: 0; stroke-linejoin: miter; stroke-miterlimit: 4; fill: rgb(17,17,17); fill-rule: nonzero; opacity: 1;"
   vector-effect="non-scaling-stroke"
   transform=" translate(-54.79, -239.59)"
   d="M 54.8 233.67 C 55.98 233.67 56.949999999999996 234.63 56.949999999999996 235.80999999999997 C 56.959999999999994 238.81999999999996 56.97 241.61999999999998 56.989999999999995 244.24999999999997 C 55.62 244.48999999999998 54.169999999999995 244.69999999999996 52.62 244.88999999999996 C 52.64 242.07999999999996 52.65 239.06999999999996 52.66 235.81999999999996 C 52.65 234.63 53.62 233.67 54.8 233.67 M 54.8 228.67 C 50.87 228.67 47.66 231.86999999999998 47.65 235.79999999999998 C 47.64 239.04 47.629999999999995 242.04999999999998 47.61 244.85 L 47.56 250.51999999999998 L 53.190000000000005 249.85999999999999 C 54.82000000000001 249.67 56.39000000000001 249.44 57.85000000000001 249.17999999999998 L 62.010000000000005 248.43999999999997 L 61.980000000000004 244.21999999999997 C 61.96 241.59999999999997 61.95 238.79999999999998 61.940000000000005 235.79999999999998 C 61.94 231.86 58.73 228.67 54.8 228.67 L 54.8 228.67 z"
   stroke-linecap="round"
   id="path27" />
</g>
<g
   transform="matrix(1 0 0 1 356.43 613.84)"
   id="g28">
<path
   style="stroke: none; stroke-width: 1; stroke-dasharray: none; stroke-linecap: butt; stroke-dashoffset: 0; stroke-linejoin: miter; stroke-miterlimit: 4; fill: rgb(220,220,220); fill-rule: nonzero; opacity: 1;"
   vector-effect="non-scaling-stroke"
   transform=" translate(-96.77, -283.48)"
   d="M 86.66 285.5 C 86.8 283.87 86.95 282.33 87.13 280.93 L 87.41 278.71 L 89.64999999999999 278.73999999999995 C 93.49999999999999 278.79999999999995 97.85 278.80999999999995 102.47 278.81999999999994 C 105.03 278.8299999999999 107.1 280.9099999999999 107.1 283.4699999999999 C 107.1 286.0299999999999 105.02 288.1099999999999 102.46 288.1199999999999 L 102.36 288.1199999999999 C 97.39 288.1299999999999 93.1 288.14999999999986 89.2 288.20999999999987 L 86.44 288.2499999999999 L 86.66 285.5 z"
   stroke-linecap="round"
   id="path28" />
</g>
<g
   transform="matrix(1 0 0 1 356.31 613.84)"
   id="g29">
<path
   style="stroke: none; stroke-width: 1; stroke-dasharray: none; stroke-linecap: butt; stroke-dashoffset: 0; stroke-linejoin: miter; stroke-miterlimit: 4; fill: rgb(17,17,17); fill-rule: nonzero; opacity: 1;"
   vector-effect="non-scaling-stroke"
   transform=" translate(-96.65, -283.48)"
   d="M 89.61 281.23 C 93.44 281.29 97.7 281.3 102.46 281.31 C 103.64 281.31 104.6 282.28000000000003 104.6 283.46 C 104.6 284.64 103.64 285.60999999999996 102.46 285.60999999999996 C 97.50999999999999 285.61999999999995 93.1 285.63999999999993 89.16 285.69999999999993 C 89.28 284.13 89.43 282.64 89.61 281.23 M 85.2 276.17 L 84.65 280.62 C 84.47 282.06 84.31 283.63 84.17 285.29 L 83.71000000000001 290.79 L 89.23 290.70000000000005 C 93.16000000000001 290.64000000000004 97.68 290.62000000000006 102.46000000000001 290.61000000000007 C 106.39000000000001 290.6000000000001 109.59 287.39000000000004 109.59 283.4600000000001 C 109.59 279.5300000000001 106.39 276.3200000000001 102.46000000000001 276.3100000000001 C 97.87 276.3000000000001 93.53 276.29000000000013 89.68 276.23000000000013 L 85.2 276.17 L 85.2 276.17 z"
   stroke-linecap="round"
   id="path29" />
</g>
<g
   transform="matrix(1 0 0 1 362.26 556.17)"
   id="g30">
<path
   style="stroke: none; stroke-width: 1; stroke-dasharray: none; stroke-linecap: butt; stroke-dashoffset: 0; stroke-linejoin: miter; stroke-miterlimit: 4; fill: rgb(220,220,220); fill-rule: nonzero; opacity: 1;"
   vector-effect="non-scaling-stroke"
   transform=" translate(-102.61, -225.81)"
   d="M 83.61 328.43 C 80.86 328.43 78.63 326.2 78.62 323.45 C 78.52000000000001 288.74 78.47 271.31 70.79 263.63 C 63.110000000000014 255.95 45.68000000000001 255.9 10.970000000000006 255.79999999999998 C 8.230000000000006 255.79 5.9900000000000055 253.54999999999998 5.9900000000000055 250.80999999999997 C 5.9900000000000055 248.06999999999996 8.220000000000006 245.82999999999998 10.970000000000006 245.81999999999996 C 45.690000000000005 245.71999999999997 63.11000000000001 245.66999999999996 70.79 237.98999999999995 C 78.34 230.43999999999994 78.53 159.96999999999997 78.61000000000001 129.87999999999994 L 78.61000000000001 128.16999999999993 C 78.62000000000002 125.42999999999994 80.86000000000001 123.18999999999993 83.60000000000001 123.18999999999993 C 86.34 123.18999999999993 88.58000000000001 125.41999999999993 88.59 128.16999999999993 L 88.59 129.87999999999994 C 88.67 159.96999999999994 88.86 230.43999999999994 96.41 237.98999999999995 C 103.99 245.56999999999996 161.84 245.72999999999996 192.92000000000002 245.81999999999996 L 194.24 245.81999999999996 C 196.98000000000002 245.82999999999996 199.22 248.06999999999996 199.22 250.80999999999997 C 199.22 253.54999999999998 196.99 255.78999999999996 194.24 255.79999999999998 L 192.94 255.79999999999998 C 161.86 255.88 104 256.03999999999996 96.42 263.63 C 88.74000000000001 271.31 88.69 288.74 88.59 323.45 C 88.59 326.2 86.35 328.43 83.61 328.43 z"
   stroke-linecap="round"
   id="path30" />
</g>
<g
   transform="matrix(1 0 0 1 362.28 556.16)"
   id="g31">
<path
   style="stroke: none; stroke-width: 1; stroke-dasharray: none; stroke-linecap: butt; stroke-dashoffset: 0; stroke-linejoin: miter; stroke-miterlimit: 4; fill: rgb(17,17,17); fill-rule: nonzero; opacity: 1;"
   vector-effect="non-scaling-stroke"
   transform=" translate(-102.62, -225.81)"
   d="M 83.61 125.69 C 84.98 125.69 86.1 126.8 86.1 128.17 C 86.19999999999999 163.57 86.25 231.33999999999997 94.66 239.75 C 103.07 248.16 158.84 248.21 194.24 248.31 C 195.61 248.31 196.72 249.43 196.72 250.8 C 196.72 252.17000000000002 195.60999999999999 253.29000000000002 194.24 253.29000000000002 C 158.84 253.39000000000001 103.07000000000001 253.44000000000003 94.66000000000001 261.85 C 86.25000000000001 270.26000000000005 86.20000000000002 288.03000000000003 86.10000000000001 323.43 C 86.10000000000001 324.8 84.98 325.91 83.61000000000001 325.91 C 82.24000000000002 325.91 81.12000000000002 324.8 81.12000000000002 323.43 C 81.02000000000002 288.03000000000003 80.97000000000001 270.26 72.56000000000002 261.85 C 64.15000000000002 253.44000000000003 46.38000000000002 253.39000000000001 10.980000000000018 253.29000000000002 C 9.610000000000017 253.29000000000002 8.500000000000018 252.17000000000002 8.500000000000018 250.8 C 8.500000000000018 249.43 9.610000000000017 248.31 10.980000000000018 248.31 C 46.38000000000002 248.21 64.15000000000002 248.16 72.56000000000002 239.75 C 80.97000000000001 231.34 81.02000000000001 163.57 81.12000000000002 128.17000000000002 C 81.12 126.81 82.24 125.69 83.61 125.69 M 83.61 120.69 C 79.49 120.69 76.13 124.03999999999999 76.12 128.16 L 76.12 129.85999999999999 C 76.07000000000001 147.95999999999998 76 172.73999999999998 74.94 194.48999999999998 C 73.2 229.94 69.71 235.46999999999997 69.02 236.21999999999997 C 62.08 243.15999999999997 43.919999999999995 243.21999999999997 10.969999999999999 243.30999999999997 C 6.849999999999999 243.31999999999996 3.499999999999999 246.67999999999998 3.499999999999999 250.79999999999998 C 3.499999999999999 254.92 6.85 258.28 10.969999999999999 258.28999999999996 C 43.92 258.37999999999994 62.08 258.42999999999995 69.03 265.39 C 75.98 272.34 76.04 290.5 76.13 323.45 C 76.14 327.57 79.5 330.92 83.61999999999999 330.92 C 87.73999999999998 330.92 91.1 327.57 91.10999999999999 323.45 C 91.19999999999999 290.5 91.24999999999999 272.34 98.20999999999998 265.39 C 98.88999999999999 264.71 103.82999999999998 261.2 133.92 259.49 C 152.88 258.41 175.10999999999999 258.35 192.95999999999998 258.3 L 194.26999999999998 258.3 C 198.39 258.29 201.73999999999998 254.93 201.73999999999998 250.81 C 201.73999999999998 246.69 198.39 243.33 194.26999999999998 243.32 L 192.95999999999998 243.32 C 175.09999999999997 243.26999999999998 152.88 243.20999999999998 133.90999999999997 242.13 C 103.81999999999996 240.42 98.87999999999997 236.91 98.19999999999996 236.23 C 97.52999999999996 235.48999999999998 94.02999999999996 229.95 92.28999999999996 194.51 C 91.21999999999997 172.76 91.15999999999997 147.98 91.10999999999996 129.88 L 91.10999999999996 128.17 C 91.09 124.04 87.73 120.69 83.61 120.69 L 83.61 120.69 z"
   stroke-linecap="round"
   id="path31" />
</g>
<g
   transform="matrix(1 0 0 1 366.43 465.27)"
   id="g32">
<path
   style="stroke: none; stroke-width: 1; stroke-dasharray: none; stroke-linecap: butt; stroke-dashoffset: 0; stroke-linejoin: miter; stroke-miterlimit: 4; fill: rgb(17,17,17); fill-rule: nonzero; opacity: 1;"
   vector-effect="non-scaling-stroke"
   transform=" translate(-106.77, -134.91)"
   d="M 117.09 126.66 C 116.29 126.66 115.57000000000001 126.97 115.02000000000001 127.47 L 115.02000000000001 126.53 C 115.02000000000001 124.83 113.63000000000001 123.44 111.93 123.44 C 111.13000000000001 123.44 110.41000000000001 123.75 109.86000000000001 124.25 L 109.86000000000001 123.31 C 109.86000000000001 121.61 108.47000000000001 120.22 106.77000000000001 120.22 C 105.07000000000001 120.22 103.68 121.61 103.68 123.31 L 103.68 124.25 C 103.13000000000001 123.75 102.41000000000001 123.44 101.61000000000001 123.44 C 99.91000000000001 123.44 98.52000000000001 124.83 98.52000000000001 126.53 L 98.52000000000001 127.47 C 97.97000000000001 126.97 97.25000000000001 126.66 96.45000000000002 126.66 C 94.75000000000001 126.66 93.36000000000001 128.04999999999998 93.36000000000001 129.75 L 93.36000000000001 140.07 C 93.36000000000001 141.76999999999998 94.75000000000001 143.16 96.45000000000002 143.16 C 97.25000000000001 143.16 97.97000000000001 142.85 98.52000000000001 142.35 L 98.52000000000001 143.29 C 98.52000000000001 144.98999999999998 99.91000000000001 146.38 101.61000000000001 146.38 C 102.41000000000001 146.38 103.13000000000001 146.07 103.68 145.57 L 103.68 146.51 C 103.68 148.20999999999998 105.07000000000001 149.6 106.77000000000001 149.6 C 108.47000000000001 149.6 109.86000000000001 148.21 109.86000000000001 146.51 L 109.86000000000001 145.57 C 110.41000000000001 146.07 111.13000000000001 146.38 111.93 146.38 C 113.63000000000001 146.38 115.02000000000001 144.99 115.02000000000001 143.29 L 115.02000000000001 142.35 C 115.57000000000001 142.85 116.29 143.16 117.09 143.16 C 118.79 143.16 120.18 141.77 120.18 140.07 L 120.18 129.75 C 120.18 128.05 118.79 126.66 117.09 126.66 z"
   stroke-linecap="round"
   id="path32" />
</g>
<g
   transform="matrix(1 0 0 1 423.02 466.49)"
   id="g33">
<path
   style="stroke: none; stroke-width: 1; stroke-dasharray: none; stroke-linecap: butt; stroke-dashoffset: 0; stroke-linejoin: miter; stroke-miterlimit: 4; fill: rgb(17,17,17); fill-rule: nonzero; opacity: 1;"
   vector-effect="non-scaling-stroke"
   transform=" translate(-163.37, -136.12)"
   d="M 203.84 135.95 C 203.84 132.42 201.11 129.66 197.62 129.66 C 196.43 129.66 195.32 130 194.37 130.57 C 193.79 130.03 193 129.7 192.13 129.7 C 191.5 129.7 190.95 129.88 190.49 130.11999999999998 C 190.03 129.86999999999998 189.51000000000002 129.73999999999998 188.96 129.73999999999998 C 188.25 129.73999999999998 187.56 130.01 187 130.46999999999997 C 186.46 130.01999999999998 185.77 129.73999999999998 185.01 129.73999999999998 C 184.45999999999998 129.73999999999998 183.95 129.87999999999997 183.48999999999998 130.14 C 182.92 129.85999999999999 182.23999999999998 129.67 181.39 129.67 C 179.92 129.67 178.48 130.29999999999998 177.33999999999997 131.44 C 177.28999999999996 131.49 177.23999999999998 131.55 177.18999999999997 131.60999999999999 C 177.04999999999998 131.42999999999998 176.88999999999996 131.24999999999997 176.70999999999998 131.07999999999998 C 175.64 130.07 174.07 129.55999999999997 172.45 129.74999999999997 L 172.45 129.02999999999997 C 172.45 127.17999999999998 171.07 125.72999999999998 169.29999999999998 125.72999999999998 C 167.98999999999998 125.72999999999998 166.92 126.48999999999998 166.42999999999998 127.62999999999998 C 165.51999999999998 126.99999999999999 164.18999999999997 126.63999999999999 162.57999999999998 126.63999999999999 C 159.73 126.63999999999999 157.44 128.23 156.66 130.54 C 155.82999999999998 130 154.82 129.7 153.71 129.7 C 152.9 129.7 152.18 129.83999999999997 151.53 130.14 C 151.08 129.88 150.57 129.73999999999998 150.03 129.73999999999998 L 149.88 129.73999999999998 C 149.6 129.74999999999997 149.35 129.80999999999997 149.1 129.87999999999997 C 149.16 129.62999999999997 149.2 129.36999999999998 149.2 129.08999999999997 C 149.2 127.22999999999998 147.7 125.71999999999997 145.85999999999999 125.71999999999997 C 143.99999999999997 125.71999999999997 142.48999999999998 127.22999999999998 142.48999999999998 129.08999999999997 C 142.48999999999998 129.86999999999998 142.74999999999997 130.57999999999998 143.2 131.15999999999997 C 142.19 130.19999999999996 140.89999999999998 129.69999999999996 139.35999999999999 129.69999999999996 C 138.66 129.69999999999996 137.99999999999997 129.84999999999997 137.39 130.13999999999996 C 136.85999999999999 129.82999999999996 136.29999999999998 129.73999999999995 135.82 129.73999999999995 C 135.29999999999998 129.73999999999995 134.82 129.87999999999994 134.41 130.09999999999997 C 134.37 127.98999999999997 132.32999999999998 126.63999999999997 129.18 126.63999999999997 C 125.63000000000001 126.63999999999997 122.96000000000001 129.08999999999997 122.96000000000001 132.34999999999997 C 122.96000000000001 134.32999999999996 123.81 135.51999999999995 124.83000000000001 136.26999999999995 C 123.71000000000001 136.71999999999994 122.89000000000001 137.83999999999995 122.89000000000001 139.10999999999996 C 122.89000000000001 140.42999999999995 123.64000000000001 141.58999999999995 124.93000000000002 142.22999999999996 C 126.08000000000003 142.77999999999997 127.43000000000002 143.05999999999997 128.92000000000002 143.05999999999997 C 130.36 143.05999999999997 131.70000000000002 142.67999999999998 132.74 141.99999999999997 L 132.74 143.22999999999996 C 132.74 145.07999999999996 134.12 146.52999999999997 135.89000000000001 146.52999999999997 C 137.69000000000003 146.52999999999997 139.04000000000002 145.10999999999999 139.04000000000002 143.22999999999996 L 139.04000000000002 142.90999999999997 C 139.13000000000002 142.90999999999997 139.23000000000002 142.91999999999996 139.32000000000002 142.91999999999996 C 140.92000000000002 142.91999999999996 142.21 142.31999999999996 143.18000000000004 141.37999999999997 C 143.74000000000004 142.28999999999996 144.70000000000005 142.87999999999997 145.82000000000002 142.87999999999997 C 146.64000000000001 142.87999999999997 147.36 142.56999999999996 147.91000000000003 142.05999999999997 C 148.46000000000004 142.56999999999996 149.18000000000004 142.87999999999997 149.98000000000002 142.87999999999997 C 151.27 142.87999999999997 152.34000000000003 142.13999999999996 152.83 141.00999999999996 C 153.33 142.12999999999997 154.41000000000003 142.87999999999997 155.67000000000002 142.87999999999997 C 156.55 142.87999999999997 157.31 142.53999999999996 157.87 141.96999999999997 C 158.01 142.05999999999997 158.16 142.14999999999998 158.32 142.22999999999996 C 159.47 142.77999999999997 160.82 143.05999999999997 162.31 143.05999999999997 C 164.06 143.05999999999997 165.64000000000001 142.50999999999996 166.75 141.52999999999997 C 167.32 142.33999999999997 168.23 142.86999999999998 169.28 142.86999999999998 C 170.59 142.86999999999998 171.66 142.10999999999999 172.15 140.95999999999998 C 172.65 142.09999999999997 173.73000000000002 142.86999999999998 175.01000000000002 142.86999999999998 C 176.12000000000003 142.86999999999998 177.05 142.31999999999996 177.61 141.45999999999998 C 178.71 142.39 180.06 142.90999999999997 181.4 142.90999999999997 C 182.23000000000002 142.90999999999997 182.89000000000001 142.73999999999998 183.44 142.45999999999998 C 183.89 142.71999999999997 184.4 142.86999999999998 184.95 142.86999999999998 C 185.73999999999998 142.86999999999998 186.42999999999998 142.57999999999998 186.97 142.11999999999998 C 187.51 142.58999999999997 188.2 142.86999999999998 188.97 142.86999999999998 C 190.68 142.86999999999998 191.97 141.56999999999996 192.1 139.80999999999997 C 192.25 140.05999999999997 192.42 140.30999999999997 192.60999999999999 140.54999999999998 C 193.86999999999998 142.04999999999998 195.76 142.91 197.79 142.91 C 199.25 142.91 200.54999999999998 142.57 201.67999999999998 141.91 C 202.95 141.21 203.68999999999997 140.15 203.68999999999997 138.99 C 203.68999999999997 138.55 203.57999999999996 138.12 203.37999999999997 137.73000000000002 C 203.68 137.25 203.84 136.65 203.84 135.95 z"
   stroke-linecap="round"
   id="path33" />
</g>
<g
   transform="matrix(1 0 0 1 366.42 465.27)"
   id="g34">
<path
   style="stroke: none; stroke-width: 1; stroke-dasharray: none; stroke-linecap: butt; stroke-dashoffset: 0; stroke-linejoin: miter; stroke-miterlimit: 4; fill: rgb(220,220,220); fill-rule: nonzero; opacity: 1;"
   vector-effect="non-scaling-stroke"
   transform=" translate(-106.76, -134.91)"
   d="M 108.05 146.53 L 108.05 123.3 C 108.05 122.59 107.47 122.00999999999999 106.75999999999999 122.00999999999999 C 106.04999999999998 122.00999999999999 105.46999999999998 122.58999999999999 105.46999999999998 123.3 L 105.46999999999998 146.53 C 105.46999999999998 147.24 106.04999999999998 147.82 106.75999999999999 147.82 C 107.47 147.82 108.05 147.24 108.05 146.53 z"
   stroke-linecap="round"
   id="path34" />
</g>
<g
   transform="matrix(1 0 0 1 371.59 465.28)"
   id="g35">
<path
   style="stroke: none; stroke-width: 1; stroke-dasharray: none; stroke-linecap: butt; stroke-dashoffset: 0; stroke-linejoin: miter; stroke-miterlimit: 4; fill: rgb(220,220,220); fill-rule: nonzero; opacity: 1;"
   vector-effect="non-scaling-stroke"
   transform=" translate(-111.93, -134.91)"
   d="M 111.93 125.24 C 111.22000000000001 125.24 110.64 125.82 110.64 126.53 L 110.64 143.3 C 110.64 144.01000000000002 111.22 144.59 111.93 144.59 C 112.64000000000001 144.59 113.22000000000001 144.01 113.22000000000001 143.3 L 113.22000000000001 126.53000000000002 C 113.22 125.82 112.64 125.24 111.93 125.24 z"
   stroke-linecap="round"
   id="path35" />
</g>
<g
   transform="matrix(1 0 0 1 376.75 465.28)"
   id="g36">
<path
   style="stroke: none; stroke-width: 1; stroke-dasharray: none; stroke-linecap: butt; stroke-dashoffset: 0; stroke-linejoin: miter; stroke-miterlimit: 4; fill: rgb(220,220,220); fill-rule: nonzero; opacity: 1;"
   vector-effect="non-scaling-stroke"
   transform=" translate(-117.09, -134.92)"
   d="M 117.09 128.47 C 116.38000000000001 128.47 115.8 129.05 115.8 129.76 L 115.8 140.07999999999998 C 115.8 140.79 116.38 141.36999999999998 117.09 141.36999999999998 C 117.80000000000001 141.36999999999998 118.38000000000001 140.78999999999996 118.38000000000001 140.07999999999998 L 118.38000000000001 129.76 C 118.38 129.04 117.8 128.47 117.09 128.47 z"
   stroke-linecap="round"
   id="path36" />
</g>
<g
   transform="matrix(1 0 0 1 356.1 465.28)"
   id="g37">
<path
   style="stroke: none; stroke-width: 1; stroke-dasharray: none; stroke-linecap: butt; stroke-dashoffset: 0; stroke-linejoin: miter; stroke-miterlimit: 4; fill: rgb(220,220,220); fill-rule: nonzero; opacity: 1;"
   vector-effect="non-scaling-stroke"
   transform=" translate(-96.44, -134.92)"
   d="M 96.44 141.37 C 97.14999999999999 141.37 97.73 140.79 97.73 140.08 L 97.73 129.76000000000002 C 97.73 129.05 97.15 128.47000000000003 96.44 128.47000000000003 C 95.73 128.47000000000003 95.14999999999999 129.05000000000004 95.14999999999999 129.76000000000002 L 95.14999999999999 140.08 C 95.15 140.79 95.73 141.37 96.44 141.37 z"
   stroke-linecap="round"
   id="path37" />
</g>
<g
   transform="matrix(1 0 0 1 361.26 465.28)"
   id="g38">
<path
   style="stroke: none; stroke-width: 1; stroke-dasharray: none; stroke-linecap: butt; stroke-dashoffset: 0; stroke-linejoin: miter; stroke-miterlimit: 4; fill: rgb(220,220,220); fill-rule: nonzero; opacity: 1;"
   vector-effect="non-scaling-stroke"
   transform=" translate(-101.6, -134.91)"
   d="M 101.6 125.24 C 100.89 125.24 100.30999999999999 125.82 100.30999999999999 126.53 L 100.30999999999999 143.3 C 100.30999999999999 144.01000000000002 100.88999999999999 144.59 101.6 144.59 C 102.30999999999999 144.59 102.89 144.01 102.89 143.3 L 102.89 126.53000000000002 C 102.89 125.82 102.32 125.24 101.6 125.24 z"
   stroke-linecap="round"
   id="path38" />
</g>
<g
   transform="matrix(1 0 0 1 388.72 465.18)"
   id="g39">
<path
   style="stroke: none; stroke-width: 1; stroke-dasharray: none; stroke-linecap: butt; stroke-dashoffset: 0; stroke-linejoin: miter; stroke-miterlimit: 4; fill: rgb(220,220,220); fill-rule: nonzero; opacity: 1;"
   vector-effect="non-scaling-stroke"
   transform=" translate(-129.06, -134.83)"
   d="M 132.42 139.93 C 131.54 140.88 130.16 141.24 128.91 141.24 C 127.81 141.24 126.67999999999999 141.06 125.7 140.58 C 125.12 140.29000000000002 124.68 139.78 124.68 139.08 C 124.68 138.46 125.23 137.84 125.89 137.84 C 126.15 137.84 126.36 137.88 126.58 137.95000000000002 L 127.57 138.32000000000002 C 127.97 138.50000000000003 128.45 138.61 128.92 138.61 C 129.64999999999998 138.61 130.45 138.17000000000002 130.45 137.33 C 130.45 136.96 130.29999999999998 136.64000000000001 130.01 136.45000000000002 C 129.42999999999998 136.08 128.7 135.9 128.04 135.72000000000003 C 126.17999999999999 135.17000000000002 124.74999999999999 134.55000000000004 124.74999999999999 132.32000000000002 C 124.74999999999999 129.87000000000003 126.89999999999999 128.41000000000003 129.17 128.41000000000003 C 130.26999999999998 128.41000000000003 132.6 128.70000000000002 132.6 130.13000000000002 C 132.6 130.90000000000003 132.04999999999998 131.52 131.32 131.52 C 131.17 131.52 131.03 131.48000000000002 130.88 131.45000000000002 L 130.37 131.27 C 129.97 131.12 129.53 131.05 129.13 131.05 C 128.51 131.05 127.74 131.34 127.74 132.04000000000002 C 127.74 132.66000000000003 128.35999999999999 132.95000000000002 128.87 133.10000000000002 L 129.6 133.28000000000003 C 131.57 133.83000000000004 133.43 134.67000000000002 133.43 136.93000000000004 C 133.44 137.99 133.15 139.13 132.42 139.93 z"
   stroke-linecap="round"
   id="path39" />
</g>
<g
   transform="matrix(1 0 0 1 398.67 468.47)"
   id="g40">
<path
   style="stroke: none; stroke-width: 1; stroke-dasharray: none; stroke-linecap: butt; stroke-dashoffset: 0; stroke-linejoin: miter; stroke-miterlimit: 4; fill: rgb(220,220,220); fill-rule: nonzero; opacity: 1;"
   vector-effect="non-scaling-stroke"
   transform=" translate(-139.01, -138.1)"
   d="M 139.32 141.1 C 138.48 141.1 137.85999999999999 140.81 137.23999999999998 140.29999999999998 L 137.23999999999998 143.21999999999997 C 137.23999999999998 144.01999999999998 136.76999999999998 144.71999999999997 135.89 144.71999999999997 C 135.04999999999998 144.71999999999997 134.54 144.02999999999997 134.54 143.21999999999997 L 134.54 133.13999999999996 C 134.54 132.33999999999995 134.91 131.52999999999994 135.82 131.52999999999994 C 136.54999999999998 131.52999999999994 136.88 131.92999999999995 137.13 132.54999999999995 C 137.71 131.88999999999996 138.44 131.48999999999995 139.35999999999999 131.48999999999995 C 140.38 131.48999999999995 141.29999999999998 131.77999999999994 142.02999999999997 132.50999999999996 C 142.97999999999996 133.41999999999996 143.48999999999998 134.76999999999995 143.48999999999998 136.08999999999997 C 143.48 138.58 142.06 141.1 139.32 141.1 z M 139.07 133.98 C 137.79 133.98 137.13 135.14999999999998 137.13 136.28 C 137.13 137.41000000000003 137.79 138.62 139.07 138.62 C 140.2 138.62 140.82 137.34 140.82 136.28 C 140.82 135.26 140.2 133.98 139.07 133.98 z"
   stroke-linecap="round"
   id="path40" />
</g>
<g
   transform="matrix(1 0 0 1 405.5 464.64)"
   id="g41">
<path
   style="stroke: none; stroke-width: 1; stroke-dasharray: none; stroke-linecap: butt; stroke-dashoffset: 0; stroke-linejoin: miter; stroke-miterlimit: 4; fill: rgb(220,220,220); fill-rule: nonzero; opacity: 1;"
   vector-effect="non-scaling-stroke"
   transform=" translate(-145.84, -134.29)"
   d="M 145.86 130.65 C 144.98000000000002 130.65 144.29000000000002 129.92000000000002 144.29000000000002 129.08 C 144.29000000000002 128.24 144.98000000000002 127.51000000000002 145.86 127.51000000000002 C 146.70000000000002 127.51000000000002 147.39000000000001 128.24 147.39000000000001 129.08 C 147.39000000000001 129.92000000000002 146.7 130.65 145.86 130.65 z M 145.82 141.06 C 144.98 141.06 144.47 140.33 144.47 139.53 L 144.47 133.03 C 144.47 132.23 144.94 131.53 145.82 131.53 C 146.66 131.53 147.17 132.22 147.17 133.03 L 147.17 139.53 C 147.17 140.37 146.7 141.06 145.82 141.06 z"
   stroke-linecap="round"
   id="path41" />
</g>
<g
   transform="matrix(1 0 0 1 412.5 466.64)"
   id="g42">
<path
   style="stroke: none; stroke-width: 1; stroke-dasharray: none; stroke-linecap: butt; stroke-dashoffset: 0; stroke-linejoin: miter; stroke-miterlimit: 4; fill: rgb(220,220,220); fill-rule: nonzero; opacity: 1;"
   vector-effect="non-scaling-stroke"
   transform=" translate(-152.84, -136.27)"
   d="M 155.68 141.06 C 154.84 141.06 154.33 140.33 154.33 139.53 L 154.33 135.48 C 154.33 134.57 153.82000000000002 133.79999999999998 152.8 133.79999999999998 C 151.96 133.79999999999998 151.34 134.57 151.34 135.36999999999998 L 151.34 139.52999999999997 C 151.34 140.36999999999998 150.87 141.05999999999997 149.99 141.05999999999997 C 149.15 141.05999999999997 148.64000000000001 140.32999999999998 148.64000000000001 139.52999999999997 L 148.64000000000001 133.09999999999997 C 148.64000000000001 132.29999999999995 149.08 131.56999999999996 149.95000000000002 131.52999999999997 L 150.02 131.52999999999997 C 150.60000000000002 131.52999999999997 151.04000000000002 131.92999999999998 151.26000000000002 132.47999999999996 C 151.99 131.78999999999996 152.68 131.48999999999995 153.71 131.48999999999995 C 154.55 131.48999999999995 155.39000000000001 131.70999999999995 156.05 132.28999999999996 C 156.85000000000002 132.97999999999996 157.04000000000002 133.81999999999996 157.04000000000002 134.84999999999997 L 157.04000000000002 139.51999999999995 C 157.03 140.37 156.56 141.06 155.68 141.06 z"
   stroke-linecap="round"
   id="path42" />
</g>
<g
   transform="matrix(1 0 0 1 422.13 465.18)"
   id="g43">
<path
   style="stroke: none; stroke-width: 1; stroke-dasharray: none; stroke-linecap: butt; stroke-dashoffset: 0; stroke-linejoin: miter; stroke-miterlimit: 4; fill: rgb(220,220,220); fill-rule: nonzero; opacity: 1;"
   vector-effect="non-scaling-stroke"
   transform=" translate(-162.47, -134.83)"
   d="M 165.83 139.93 C 164.95000000000002 140.88 163.57000000000002 141.24 162.32000000000002 141.24 C 161.22000000000003 141.24 160.09000000000003 141.06 159.11 140.58 C 158.53 140.29000000000002 158.09 139.78 158.09 139.08 C 158.09 138.46 158.64000000000001 137.84 159.3 137.84 C 159.56 137.84 159.77 137.88 159.99 137.95000000000002 L 160.98000000000002 138.32000000000002 C 161.38000000000002 138.50000000000003 161.86 138.61 162.33 138.61 C 163.06 138.61 163.86 138.17000000000002 163.86 137.33 C 163.86 136.96 163.71 136.64000000000001 163.42000000000002 136.45000000000002 C 162.84 136.08 162.11 135.9 161.45000000000002 135.72000000000003 C 159.59 135.17000000000002 158.16000000000003 134.55000000000004 158.16000000000003 132.32000000000002 C 158.16000000000003 129.87000000000003 160.31000000000003 128.41000000000003 162.58 128.41000000000003 C 163.68 128.41000000000003 166.01000000000002 128.70000000000002 166.01000000000002 130.13000000000002 C 166.01000000000002 130.90000000000003 165.46 131.52 164.73000000000002 131.52 C 164.58 131.52 164.44000000000003 131.48000000000002 164.29000000000002 131.45000000000002 L 163.78000000000003 131.27 C 163.38000000000002 131.12 162.94000000000003 131.05 162.54000000000002 131.05 C 161.92000000000002 131.05 161.15000000000003 131.34 161.15000000000003 132.04000000000002 C 161.15000000000003 132.66000000000003 161.77000000000004 132.95000000000002 162.28000000000003 133.10000000000002 L 163.01000000000002 133.28000000000003 C 164.98000000000002 133.83000000000004 166.84000000000003 134.67000000000002 166.84000000000003 136.93000000000004 C 166.85 137.99 166.56 139.13 165.83 139.93 z"
   stroke-linecap="round"
   id="path43" />
</g>
<g
   transform="matrix(1 0 0 1 431.82 464.64)"
   id="g44">
<path
   style="stroke: none; stroke-width: 1; stroke-dasharray: none; stroke-linecap: butt; stroke-dashoffset: 0; stroke-linejoin: miter; stroke-miterlimit: 4; fill: rgb(220,220,220); fill-rule: nonzero; opacity: 1;"
   vector-effect="non-scaling-stroke"
   transform=" translate(-172.17, -134.28)"
   d="M 175.03 141.06 C 174.19 141.06 173.68 140.33 173.68 139.53 L 173.68 135.62 C 173.68 134.67000000000002 173.28 133.79 172.15 133.79 C 171.27 133.79 170.65 134.59 170.65 135.42999999999998 L 170.65 139.51999999999998 C 170.65 140.35999999999999 170.18 141.04999999999998 169.3 141.04999999999998 C 168.46 141.04999999999998 167.95000000000002 140.32 167.95000000000002 139.51999999999998 L 167.95000000000002 128.99999999999997 C 167.95000000000002 128.19999999999996 168.42000000000002 127.49999999999997 169.3 127.49999999999997 C 170.14000000000001 127.49999999999997 170.65 128.18999999999997 170.65 128.99999999999997 L 170.65 132.24999999999997 C 171.38 131.80999999999997 172.18 131.47999999999996 173.06 131.47999999999996 C 173.94 131.47999999999996 174.81 131.73999999999995 175.47 132.35999999999996 C 176.2 133.04999999999995 176.38 133.88999999999996 176.38 134.87999999999997 L 176.38 139.51999999999995 C 176.38 140.37 175.91 141.06 175.03 141.06 z"
   stroke-linecap="round"
   id="path44" />
</g>
<g
   transform="matrix(1 0 0 1 441.45 466.63)"
   id="g45">
<path
   style="stroke: none; stroke-width: 1; stroke-dasharray: none; stroke-linecap: butt; stroke-dashoffset: 0; stroke-linejoin: miter; stroke-miterlimit: 4; fill: rgb(220,220,220); fill-rule: nonzero; opacity: 1;"
   vector-effect="non-scaling-stroke"
   transform=" translate(-181.8, -136.27)"
   d="M 184.97 141.06 C 184.31 141.06 183.87 140.55 183.69 139.96 C 183.03 140.73000000000002 182.45 141.09 181.43 141.09 C 180.48000000000002 141.09 179.53 140.69 178.8 140.07 C 177.70000000000002 139.07999999999998 177.23000000000002 137.7 177.23000000000002 136.26999999999998 C 177.23000000000002 134.88 177.63000000000002 133.67999999999998 178.62 132.68999999999997 C 179.35 131.95999999999998 180.34 131.44999999999996 181.4 131.44999999999996 C 182.39000000000001 131.44999999999996 183.01000000000002 131.81999999999996 183.70000000000002 132.50999999999996 C 183.96 131.95999999999995 184.36 131.51999999999995 185.01000000000002 131.51999999999995 C 185.78000000000003 131.51999999999995 186.36 132.13999999999996 186.36 132.90999999999994 L 186.36 139.44999999999993 C 186.35 140.29 185.84 141.06 184.97 141.06 z M 181.68 133.98 C 180.47 133.98 179.89000000000001 135.19 179.89000000000001 136.23999999999998 C 179.89000000000001 137.33999999999997 180.4 138.57999999999998 181.68 138.57999999999998 C 182.92000000000002 138.57999999999998 183.62 137.48 183.62 136.35 C 183.61 135.11 183.07 133.98 181.68 133.98 z"
   stroke-linecap="round"
   id="path45" />
</g>
<g
   transform="matrix(1 0 0 1 450.26 466.64)"
   id="g46">
<path
   style="stroke: none; stroke-width: 1; stroke-dasharray: none; stroke-linecap: butt; stroke-dashoffset: 0; stroke-linejoin: miter; stroke-miterlimit: 4; fill: rgb(220,220,220); fill-rule: nonzero; opacity: 1;"
   vector-effect="non-scaling-stroke"
   transform=" translate(-190.6, -136.28)"
   d="M 192.16 134.09 C 191.69 134.27 191.17 134.46 190.74 134.78 C 190.41 135.04 190.34 135.44 190.34 135.88 L 190.34 139.53 C 190.34 140.37 189.87 141.06 188.99 141.06 C 188.15 141.06 187.64000000000001 140.33 187.64000000000001 139.53 L 187.64000000000001 133.07 C 187.64000000000001 132.7 187.71 132.29999999999998 187.97000000000003 132.01 C 188.23000000000002 131.72 188.59000000000003 131.54 188.96000000000004 131.54 C 189.62000000000003 131.54 190.06000000000003 131.91 190.35000000000002 132.48999999999998 C 190.82000000000002 132.01999999999998 191.41000000000003 131.49999999999997 192.14000000000001 131.49999999999997 C 192.91000000000003 131.49999999999997 193.56 132.04999999999998 193.56 132.77999999999997 C 193.55 133.65 192.85 133.87 192.16 134.09 z"
   stroke-linecap="round"
   id="path46" />
</g>
<g
   transform="matrix(1 0 0 1 457.18 466.64)"
   id="g47">
<path
   style="stroke: none; stroke-width: 1; stroke-dasharray: none; stroke-linecap: butt; stroke-dashoffset: 0; stroke-linejoin: miter; stroke-miterlimit: 4; fill: rgb(220,220,220); fill-rule: nonzero; opacity: 1;"
   vector-effect="non-scaling-stroke"
   transform=" translate(-197.52, -136.28)"
   d="M 200.87 137.15 L 195.87 137.15 C 196.05 137.62 196.27 138.03 196.67000000000002 138.32 C 197.04000000000002 138.60999999999999 197.47000000000003 138.76 197.95000000000002 138.76 C 198.46 138.76 198.97000000000003 138.60999999999999 199.45000000000002 138.39 L 200.22000000000003 137.98999999999998 C 200.37000000000003 137.92 200.55000000000004 137.87999999999997 200.73000000000002 137.87999999999997 L 200.77 137.87999999999997 C 201.35000000000002 137.87999999999997 201.9 138.42999999999998 201.9 138.97999999999996 C 201.9 139.59999999999997 201.28 140.07999999999996 200.8 140.32999999999996 C 199.89000000000001 140.87999999999997 198.86 141.09999999999997 197.81 141.09999999999997 C 196.35 141.09999999999997 194.96 140.51999999999995 194.01 139.37999999999997 C 193.23999999999998 138.42999999999998 192.98999999999998 137.40999999999997 192.98999999999998 136.23999999999998 C 192.98999999999998 133.64999999999998 194.99999999999997 131.45999999999998 197.62999999999997 131.45999999999998 C 200.14999999999998 131.45999999999998 202.04999999999995 133.51 202.04999999999995 135.95 C 202.04 136.79 201.71 137.15 200.87 137.15 z M 197.58 133.65 C 196.56 133.65 196.08 134.45000000000002 195.79000000000002 135.33 L 199.41000000000003 135.33 C 199.15 134.42 198.68 133.65 197.58 133.65 z"
   stroke-linecap="round"
   id="path47" />
</g>

<text
   xml:space="preserve"
   style="font-style:normal;font-variant:normal;font-weight:normal;font-stretch:normal;font-size:37.3333px;font-family:Troglodyte;-inkscape-font-specification:Troglodyte;writing-mode:lr-tb;direction:ltr;fill:#050505;fill-opacity:1"
   x="678.00385"
   y="586.11743"
   id="text48"><tspan
     sodipodi:role="line"
     id="tspan48"
     x="678.00385"
     y="586.11743">spring</tspan></text><text
   xml:space="preserve"
   style="font-style:normal;font-variant:normal;font-weight:normal;font-stretch:normal;font-size:24px;font-family:Troglodyte;-inkscape-font-specification:Troglodyte;writing-mode:lr-tb;direction:ltr;fill:#050505;fill-opacity:1"
   x="699.35419"
   y="602.83759"
   id="text49"><tspan
     sodipodi:role="line"
     id="tspan49"
     x="699.35419"
     y="602.83759">2026</tspan></text></svg>
